<svg width="340" height="340" viewBox="0 0 340 340" fill="none" xmlns="http://www.w3.org/2000/svg">
<g filter="url(#filter0_d_1_120)">
<circle cx="166" cy="166" r="150" fill="white"/>
<path d="M115.661 202.453C121.079 202.453 123.788 204.473 123.788 208.513V209.867C123.788 212.053 122.814 213.455 120.865 214.073C118.917 214.691 115.376 215 110.243 215H95.5576L93.918 214.929C77.9017 214.929 68.8005 214.192 66.6143 212.719C64.4281 211.245 63.335 205.946 63.335 196.821V185.558L63.4062 183.918L63.5488 175.791V162.745L63.6201 159.537V151.624L63.5488 146.919C63.5488 145.351 63.5488 143.782 63.5488 142.214L63.4775 137.509V132.875L63.335 123.536C63.335 119.639 63.6676 117.191 64.333 116.193C65.0459 115.148 66.6618 114.625 69.1807 114.625C71.6995 114.625 73.6243 115.029 74.9551 115.837C76.2858 116.597 77.1888 118.142 77.6641 120.471C78.1868 122.799 78.4482 135.489 78.4482 158.539C78.4482 181.589 79.2799 194.825 80.9434 198.247C81.8464 200.101 83.8424 201.312 86.9316 201.883C90.0684 202.453 95.1061 202.738 102.045 202.738L106.679 202.667C107.724 202.619 108.746 202.596 109.744 202.596L112.738 202.453H115.661Z" fill="#803D99"/>
<path d="M272.083 215.824H214.125C210.798 215.824 208.755 215.515 207.994 214.897C207.281 214.28 206.925 212.711 206.925 210.192V209.337C206.925 206.295 207.4 204.465 208.351 203.848C209.301 203.277 211.654 202.992 215.408 202.992H236.438L237.223 203.063L270.158 202.992C274.15 202.992 276.598 203.23 277.501 203.705C278.451 204.18 278.927 205.606 278.927 207.982V210.406C278.927 212.878 278.451 214.398 277.501 214.969C276.598 215.539 274.792 215.824 272.083 215.824Z" fill="#803D99"/>
<path d="M142.402 214.938C140.074 214.938 138.909 212.966 138.909 209.021V207.81C138.909 204.863 141.143 201.631 145.61 198.114C146.513 197.401 152.383 193.766 163.219 187.207C174.055 180.648 179.473 177.274 179.473 177.084C179.473 176.894 173.983 173.377 163.005 166.533C152.026 159.689 146.062 155.887 145.111 155.127C141.119 151.895 139.123 148.331 139.123 144.434C139.123 140.536 140.454 138.588 143.115 138.588C143.781 138.588 146.109 139.705 150.102 141.938C167.876 151.919 182.324 160.996 193.445 169.171C196.107 171.119 197.438 173.757 197.438 177.084C197.438 180.411 195.917 183.072 192.875 185.068C177.096 195.762 161.84 205.124 147.107 213.156C144.921 214.344 143.353 214.938 142.402 214.938Z" fill="#803D99"/>
</g>
<defs>
<filter id="filter0_d_1_120" x="0" y="0" width="340" height="340" filterUnits="userSpaceOnUse" color-interpolation-filters="sRGB">
<feFlood flood-opacity="0" result="BackgroundImageFix"/>
<feColorMatrix in="SourceAlpha" type="matrix" values="0 0 0 0 0 0 0 0 0 0 0 0 0 0 0 0 0 0 127 0" result="hardAlpha"/>
<feOffset dx="4" dy="4"/>
<feGaussianBlur stdDeviation="10"/>
<feComposite in2="hardAlpha" operator="out"/>
<feColorMatrix type="matrix" values="0 0 0 0 0 0 0 0 0 0 0 0 0 0 0 0 0 0 0.25 0"/>
<feBlend mode="normal" in2="BackgroundImageFix" result="effect1_dropShadow_1_120"/>
<feBlend mode="normal" in="SourceGraphic" in2="effect1_dropShadow_1_120" result="shape"/>
</filter>
</defs>
</svg>
