<svg width="340" height="225" viewBox="0 0 340 225" fill="none" xmlns="http://www.w3.org/2000/svg">
<g filter="url(#filter0_d_1_186)">
<rect x="16" y="21" width="300" height="180" rx="35" fill="#803D99"/>
<path d="M113.661 148.453C119.079 148.453 121.788 150.473 121.788 154.513V155.867C121.788 158.053 120.814 159.455 118.865 160.073C116.917 160.691 113.376 161 108.243 161H93.5576L91.918 160.929C75.9017 160.929 66.8005 160.192 64.6143 158.719C62.4281 157.245 61.335 151.946 61.335 142.821V131.558L61.4062 129.918L61.5488 121.791V108.745L61.6201 105.537V97.624L61.5488 92.9189C61.5488 91.3506 61.5488 89.7822 61.5488 88.2139L61.4775 83.5088V78.875L61.335 69.5361C61.335 65.639 61.6676 63.1914 62.333 62.1934C63.0459 61.1478 64.6618 60.625 67.1807 60.625C69.6995 60.625 71.6243 61.029 72.9551 61.8369C74.2858 62.5973 75.1888 64.1419 75.6641 66.4707C76.1868 68.7995 76.4482 81.4889 76.4482 104.539C76.4482 127.589 77.2799 140.825 78.9434 144.247C79.8464 146.101 81.8424 147.312 84.9316 147.883C88.0684 148.453 93.1061 148.738 100.045 148.738L104.679 148.667C105.724 148.619 106.746 148.596 107.744 148.596L110.738 148.453H113.661Z" fill="black"/>
<path d="M270.083 161.824H212.125C208.798 161.824 206.755 161.515 205.994 160.897C205.281 160.28 204.925 158.711 204.925 156.192V155.337C204.925 152.295 205.4 150.465 206.351 149.848C207.301 149.277 209.654 148.992 213.408 148.992H234.438L235.223 149.063L268.158 148.992C272.15 148.992 274.598 149.23 275.501 149.705C276.451 150.18 276.927 151.606 276.927 153.982V156.406C276.927 158.878 276.451 160.398 275.501 160.969C274.598 161.539 272.792 161.824 270.083 161.824Z" fill="black"/>
<path d="M142.402 158.938C140.074 158.938 138.909 156.966 138.909 153.021V151.81C138.909 148.863 141.143 145.631 145.61 142.114C146.513 141.401 152.383 137.766 163.219 131.207C174.055 124.648 179.473 121.274 179.473 121.084C179.473 120.894 173.983 117.377 163.005 110.533C152.026 103.689 146.062 99.8874 145.111 99.127C141.119 95.8952 139.123 92.3307 139.123 88.4336C139.123 84.5365 140.454 82.5879 143.115 82.5879C143.781 82.5879 146.109 83.7048 150.102 85.9385C167.876 95.9189 182.324 104.996 193.445 113.171C196.107 115.119 197.438 117.757 197.438 121.084C197.438 124.411 195.917 127.072 192.875 129.068C177.096 139.762 161.84 149.124 147.107 157.156C144.921 158.344 143.353 158.938 142.402 158.938Z" fill="black"/>
</g>
<defs>
<filter id="filter0_d_1_186" x="0" y="5" width="340" height="220" filterUnits="userSpaceOnUse" color-interpolation-filters="sRGB">
<feFlood flood-opacity="0" result="BackgroundImageFix"/>
<feColorMatrix in="SourceAlpha" type="matrix" values="0 0 0 0 0 0 0 0 0 0 0 0 0 0 0 0 0 0 127 0" result="hardAlpha"/>
<feOffset dx="4" dy="4"/>
<feGaussianBlur stdDeviation="10"/>
<feComposite in2="hardAlpha" operator="out"/>
<feColorMatrix type="matrix" values="0 0 0 0 0 0 0 0 0 0 0 0 0 0 0 0 0 0 0.25 0"/>
<feBlend mode="normal" in2="BackgroundImageFix" result="effect1_dropShadow_1_186"/>
<feBlend mode="normal" in="SourceGraphic" in2="effect1_dropShadow_1_186" result="shape"/>
</filter>
</defs>
</svg>
