<svg width="340" height="340" viewBox="0 0 340 340" fill="none" xmlns="http://www.w3.org/2000/svg">
<g filter="url(#filter0_d_1_138)">
<circle cx="166" cy="166" r="150" fill="#803D99"/>
<path d="M115.661 201.453C121.079 201.453 123.788 203.473 123.788 207.513V208.867C123.788 211.053 122.814 212.455 120.865 213.073C118.917 213.691 115.376 214 110.243 214H95.5576L93.918 213.929C77.9017 213.929 68.8005 213.192 66.6143 211.719C64.4281 210.245 63.335 204.946 63.335 195.821V184.558L63.4062 182.918L63.5488 174.791V161.745L63.6201 158.537V150.624L63.5488 145.919C63.5488 144.351 63.5488 142.782 63.5488 141.214L63.4775 136.509V131.875L63.335 122.536C63.335 118.639 63.6676 116.191 64.333 115.193C65.0459 114.148 66.6618 113.625 69.1807 113.625C71.6995 113.625 73.6243 114.029 74.9551 114.837C76.2858 115.597 77.1888 117.142 77.6641 119.471C78.1868 121.799 78.4482 134.489 78.4482 157.539C78.4482 180.589 79.2799 193.825 80.9434 197.247C81.8464 199.101 83.8424 200.312 86.9316 200.883C90.0684 201.453 95.1061 201.738 102.045 201.738L106.679 201.667C107.724 201.619 108.746 201.596 109.744 201.596L112.738 201.453H115.661Z" fill="black"/>
<path d="M272.083 214.824H214.125C210.798 214.824 208.755 214.515 207.994 213.897C207.281 213.28 206.925 211.711 206.925 209.192V208.337C206.925 205.295 207.4 203.465 208.351 202.848C209.301 202.277 211.654 201.992 215.408 201.992H236.438L237.223 202.063L270.158 201.992C274.15 201.992 276.598 202.23 277.501 202.705C278.451 203.18 278.927 204.606 278.927 206.982V209.406C278.927 211.878 278.451 213.398 277.501 213.969C276.598 214.539 274.792 214.824 272.083 214.824Z" fill="black"/>
<path d="M142.402 213.938C140.074 213.938 138.909 211.966 138.909 208.021V206.81C138.909 203.863 141.143 200.631 145.61 197.114C146.513 196.401 152.383 192.766 163.219 186.207C174.055 179.648 179.473 176.274 179.473 176.084C179.473 175.894 173.983 172.377 163.005 165.533C152.026 158.689 146.062 154.887 145.111 154.127C141.119 150.895 139.123 147.331 139.123 143.434C139.123 139.536 140.454 137.588 143.115 137.588C143.781 137.588 146.109 138.705 150.102 140.938C167.876 150.919 182.324 159.996 193.445 168.171C196.107 170.119 197.438 172.757 197.438 176.084C197.438 179.411 195.917 182.072 192.875 184.068C177.096 194.762 161.84 204.124 147.107 212.156C144.921 213.344 143.353 213.938 142.402 213.938Z" fill="black"/>
</g>
<defs>
<filter id="filter0_d_1_138" x="0" y="0" width="340" height="340" filterUnits="userSpaceOnUse" color-interpolation-filters="sRGB">
<feFlood flood-opacity="0" result="BackgroundImageFix"/>
<feColorMatrix in="SourceAlpha" type="matrix" values="0 0 0 0 0 0 0 0 0 0 0 0 0 0 0 0 0 0 127 0" result="hardAlpha"/>
<feOffset dx="4" dy="4"/>
<feGaussianBlur stdDeviation="10"/>
<feComposite in2="hardAlpha" operator="out"/>
<feColorMatrix type="matrix" values="0 0 0 0 0 0 0 0 0 0 0 0 0 0 0 0 0 0 0.25 0"/>
<feBlend mode="normal" in2="BackgroundImageFix" result="effect1_dropShadow_1_138"/>
<feBlend mode="normal" in="SourceGraphic" in2="effect1_dropShadow_1_138" result="shape"/>
</filter>
</defs>
</svg>
