<svg width="690" height="340" viewBox="0 0 690 340" fill="none" xmlns="http://www.w3.org/2000/svg">
<g filter="url(#filter0_d_1_101)">
<rect x="16" y="16" width="650" height="300" fill="white"/>
<path d="M106.766 137.33C109.214 137.33 111.254 137.16 112.886 136.82C114.586 136.412 115.912 135.868 116.864 135.188C117.816 134.44 118.496 133.59 118.904 132.638C119.312 131.618 119.516 130.53 119.516 129.374C119.516 127.674 119.108 126.246 118.292 125.09C117.476 123.866 116.354 122.812 114.926 121.928C113.566 120.976 112.002 120.16 110.234 119.48C108.466 118.732 106.63 118.018 104.726 117.338C102.89 116.658 101.054 115.91 99.218 115.094C97.45 114.278 95.852 113.292 94.424 112.136C93.064 110.912 91.942 109.484 91.058 107.852C90.174 106.152 89.732 104.078 89.732 101.63C89.732 97.278 91.024 93.742 93.608 91.022C96.192 88.302 99.932 86.568 104.828 85.82V75.314H112.376V85.514C115.096 85.65 117.578 85.99 119.822 86.534C122.134 87.01 123.97 87.52 125.33 88.064L123.596 95.204C122.168 94.66 120.366 94.116 118.19 93.572C116.014 92.96 113.26 92.654 109.928 92.654C106.256 92.654 103.434 93.334 101.462 94.694C99.558 96.054 98.606 98.026 98.606 100.61C98.606 102.038 98.878 103.228 99.422 104.18C100.034 105.132 100.884 105.982 101.972 106.73C103.06 107.478 104.318 108.158 105.746 108.77C107.242 109.382 108.908 110.028 110.744 110.708C113.056 111.592 115.3 112.544 117.476 113.564C119.652 114.516 121.556 115.672 123.188 117.032C124.82 118.392 126.112 120.024 127.064 121.928C128.084 123.832 128.594 126.11 128.594 128.762C128.594 132.774 127.268 136.174 124.616 138.962C121.964 141.75 117.884 143.484 112.376 144.164V155.894H104.828V144.47C100.544 144.334 97.076 143.858 94.424 143.042C91.772 142.226 89.8 141.444 88.508 140.696L90.752 133.658C92.588 134.542 94.764 135.392 97.28 136.208C99.796 136.956 102.958 137.33 106.766 137.33ZM218.048 139.472C218.048 141.512 217.368 143.314 216.008 144.878C214.648 146.442 212.846 147.224 210.602 147.224C208.29 147.224 206.454 146.442 205.094 144.878C203.734 143.314 203.054 141.512 203.054 139.472C203.054 137.364 203.734 135.528 205.094 133.964C206.454 132.4 208.29 131.618 210.602 131.618C212.846 131.618 214.648 132.4 216.008 133.964C217.368 135.528 218.048 137.364 218.048 139.472ZM218.048 106.526C218.048 108.566 217.368 110.368 216.008 111.932C214.648 113.496 212.846 114.278 210.602 114.278C208.29 114.278 206.454 113.496 205.094 111.932C203.734 110.368 203.054 108.566 203.054 106.526C203.054 104.418 203.734 102.582 205.094 101.018C206.454 99.454 208.29 98.672 210.602 98.672C212.846 98.672 214.648 99.454 216.008 101.018C217.368 102.582 218.048 104.418 218.048 106.526ZM333.92 138.86V146H296.282V82.862H304.646V138.86H333.92ZM359.318 91.328C357.55 91.328 356.02 90.716 354.728 89.492C353.436 88.268 352.79 86.602 352.79 84.494C352.79 82.386 353.436 80.72 354.728 79.496C356.02 78.272 357.55 77.66 359.318 77.66C361.154 77.66 362.684 78.272 363.908 79.496C365.2 80.72 365.846 82.386 365.846 84.494C365.846 86.602 365.2 88.268 363.908 89.492C362.684 90.716 361.154 91.328 359.318 91.328ZM357.176 105.71H343.508V98.672H365.54V127.742C365.54 132.434 366.186 135.596 367.478 137.228C368.77 138.792 370.708 139.574 373.292 139.574C375.264 139.574 377.066 139.336 378.698 138.86C380.398 138.384 381.724 137.874 382.676 137.33L383.9 144.47C383.492 144.674 382.914 144.946 382.166 145.286C381.418 145.558 380.534 145.83 379.514 146.102C378.562 146.374 377.474 146.612 376.25 146.816C375.094 147.02 373.87 147.122 372.578 147.122C369.586 147.122 367.104 146.714 365.132 145.898C363.16 145.082 361.562 143.858 360.338 142.226C359.182 140.594 358.366 138.588 357.89 136.208C357.414 133.76 357.176 130.938 357.176 127.742V105.71ZM396.242 99.998C399.302 99.25 402.328 98.672 405.32 98.264C408.38 97.856 411.236 97.652 413.888 97.652C420.212 97.652 424.972 99.284 428.168 102.548C431.432 105.812 433.064 111.048 433.064 118.256V146H424.7V119.786C424.7 116.726 424.428 114.244 423.884 112.34C423.34 110.436 422.558 108.974 421.538 107.954C420.586 106.866 419.396 106.118 417.968 105.71C416.608 105.302 415.112 105.098 413.48 105.098C412.12 105.098 410.658 105.2 409.094 105.404C407.598 105.54 406.136 105.744 404.708 106.016V146H396.242V99.998ZM483.758 144.674C481.922 145.15 479.474 145.66 476.414 146.204C473.422 146.748 469.886 147.02 465.806 147.02C462.202 147.02 459.21 146.51 456.83 145.49C454.45 144.402 452.512 142.906 451.016 141.002C449.52 139.03 448.466 136.718 447.854 134.066C447.242 131.414 446.936 128.49 446.936 125.294V98.672H455.3V123.458C455.3 129.306 456.15 133.454 457.85 135.902C459.618 138.35 462.542 139.574 466.622 139.574C467.506 139.574 468.39 139.54 469.274 139.472C470.226 139.404 471.11 139.336 471.926 139.268C472.742 139.132 473.456 139.03 474.068 138.962C474.68 138.826 475.088 138.724 475.292 138.656V98.672H483.758V144.674ZM529.76 146C529.08 144.64 528.23 143.144 527.21 141.512C526.258 139.88 525.204 138.214 524.048 136.514C522.892 134.746 521.668 133.012 520.376 131.312C519.152 129.612 517.928 128.014 516.704 126.518C515.48 128.082 514.188 129.714 512.828 131.414C511.468 133.114 510.142 134.848 508.85 136.616C507.626 138.316 506.47 139.982 505.382 141.614C504.294 143.246 503.376 144.708 502.628 146H493.958C496.202 141.92 498.922 137.738 502.118 133.454C505.382 129.102 508.578 124.988 511.706 121.112L494.672 98.672H504.158L516.908 115.196L528.638 98.672H537.614L522.008 120.602C525.068 124.614 528.128 128.796 531.188 133.148C534.316 137.5 536.968 141.784 539.144 146H529.76ZM549.14 74.702H557.606L585.86 162.83H577.292L549.14 74.702ZM87.998 208.73L90.344 201.692L129.716 218.42V225.662L90.344 242.39L87.998 235.352L120.332 221.99L87.998 208.73ZM195.404 184.862C196.22 189.146 197.24 193.838 198.464 198.938C199.756 203.97 201.082 209.036 202.442 214.136C203.87 219.168 205.298 223.996 206.726 228.62C208.154 233.244 209.48 237.29 210.704 240.758C211.792 237.29 213.05 233.21 214.478 228.518C215.974 223.826 217.436 218.964 218.864 213.932C220.292 208.832 221.618 203.766 222.842 198.734C224.134 193.702 225.188 189.078 226.004 184.862H234.776C234.232 187.582 233.348 191.254 232.124 195.878C230.9 200.434 229.438 205.568 227.738 211.28C226.038 216.924 224.134 222.942 222.026 229.334C219.986 235.658 217.844 241.88 215.6 248H205.196C203.088 241.88 201.014 235.658 198.974 229.334C197.002 223.01 195.166 217.026 193.466 211.382C191.766 205.67 190.304 200.502 189.08 195.878C187.856 191.254 186.938 187.582 186.326 184.862H195.404ZM257.318 193.328C255.55 193.328 254.02 192.716 252.728 191.492C251.436 190.268 250.79 188.602 250.79 186.494C250.79 184.386 251.436 182.72 252.728 181.496C254.02 180.272 255.55 179.66 257.318 179.66C259.154 179.66 260.684 180.272 261.908 181.496C263.2 182.72 263.846 184.386 263.846 186.494C263.846 188.602 263.2 190.268 261.908 191.492C260.684 192.716 259.154 193.328 257.318 193.328ZM255.176 207.71H241.508V200.672H263.54V229.742C263.54 234.434 264.186 237.596 265.478 239.228C266.77 240.792 268.708 241.574 271.292 241.574C273.264 241.574 275.066 241.336 276.698 240.86C278.398 240.384 279.724 239.874 280.676 239.33L281.9 246.47C281.492 246.674 280.914 246.946 280.166 247.286C279.418 247.558 278.534 247.83 277.514 248.102C276.562 248.374 275.474 248.612 274.25 248.816C273.094 249.02 271.87 249.122 270.578 249.122C267.586 249.122 265.104 248.714 263.132 247.898C261.16 247.082 259.562 245.858 258.338 244.226C257.182 242.594 256.366 240.588 255.89 238.208C255.414 235.76 255.176 232.938 255.176 229.742V207.71ZM291.998 224.438C291.998 220.154 292.678 216.448 294.038 213.32C295.398 210.192 297.268 207.608 299.648 205.568C302.028 203.528 304.782 202.032 307.91 201.08C311.106 200.06 314.506 199.55 318.11 199.55C320.422 199.55 322.7 199.72 324.944 200.06C327.256 200.332 329.704 200.876 332.288 201.692L330.35 208.934C328.106 208.118 326.032 207.608 324.128 207.404C322.292 207.132 320.422 206.996 318.518 206.996C316.07 206.996 313.758 207.336 311.582 208.016C309.406 208.628 307.502 209.648 305.87 211.076C304.306 212.436 303.048 214.238 302.096 216.482C301.144 218.658 300.668 221.31 300.668 224.438C300.668 227.43 301.11 230.014 301.994 232.19C302.878 234.298 304.102 236.066 305.666 237.494C307.298 238.854 309.236 239.874 311.48 240.554C313.724 241.234 316.206 241.574 318.926 241.574C321.102 241.574 323.176 241.472 325.148 241.268C327.188 240.996 329.398 240.452 331.778 239.636L333.002 246.674C330.622 247.558 328.208 248.17 325.76 248.51C323.312 248.918 320.66 249.122 317.804 249.122C313.996 249.122 310.494 248.612 307.298 247.592C304.17 246.504 301.45 244.94 299.138 242.9C296.894 240.86 295.126 238.31 293.834 235.25C292.61 232.122 291.998 228.518 291.998 224.438ZM362.786 200.672H382.778V207.71H362.786V229.742C362.786 232.122 362.956 234.06 363.296 235.556C363.636 237.052 364.18 238.276 364.928 239.228C365.744 240.112 366.764 240.724 367.988 241.064C369.212 241.404 370.708 241.574 372.476 241.574C374.924 241.574 376.896 241.37 378.392 240.962C379.888 240.554 381.316 240.01 382.676 239.33L383.9 246.47C382.948 246.878 381.418 247.422 379.31 248.102C377.27 248.782 374.72 249.122 371.66 249.122C368.124 249.122 365.234 248.714 362.99 247.898C360.746 247.082 358.978 245.858 357.686 244.226C356.462 242.594 355.612 240.588 355.136 238.208C354.66 235.76 354.422 232.938 354.422 229.742V207.71H344.426V200.672H354.422V187.412L362.786 185.984V200.672ZM435.92 224.336C435.92 228.076 435.376 231.476 434.288 234.536C433.268 237.528 431.806 240.112 429.902 242.288C427.998 244.464 425.72 246.164 423.068 247.388C420.416 248.544 417.526 249.122 414.398 249.122C411.338 249.122 408.482 248.544 405.83 247.388C403.246 246.164 401.002 244.464 399.098 242.288C397.194 240.112 395.698 237.528 394.61 234.536C393.59 231.476 393.08 228.076 393.08 224.336C393.08 220.596 393.59 217.196 394.61 214.136C395.698 211.076 397.194 208.492 399.098 206.384C401.002 204.208 403.246 202.542 405.83 201.386C408.482 200.162 411.338 199.55 414.398 199.55C417.526 199.55 420.416 200.162 423.068 201.386C425.72 202.542 427.998 204.208 429.902 206.384C431.806 208.492 433.268 211.076 434.288 214.136C435.376 217.196 435.92 220.596 435.92 224.336ZM427.25 224.336C427.25 218.964 426.094 214.748 423.782 211.688C421.47 208.56 418.342 206.996 414.398 206.996C410.522 206.996 407.428 208.56 405.116 211.688C402.872 214.748 401.75 218.964 401.75 224.336C401.75 229.64 402.872 233.856 405.116 236.984C407.428 240.044 410.522 241.574 414.398 241.574C418.342 241.574 421.47 240.044 423.782 236.984C426.094 233.856 427.25 229.64 427.25 224.336ZM450.914 248V203.222C457.85 200.842 464.854 199.652 471.926 199.652C474.102 199.652 476.176 199.754 478.148 199.958C480.12 200.094 482.296 200.434 484.676 200.978L483.146 208.424C480.97 207.812 479.032 207.438 477.332 207.302C475.7 207.098 473.898 206.996 471.926 206.996C467.778 206.996 463.562 207.574 459.278 208.73V248H450.914ZM512.318 193.328C510.55 193.328 509.02 192.716 507.728 191.492C506.436 190.268 505.79 188.602 505.79 186.494C505.79 184.386 506.436 182.72 507.728 181.496C509.02 180.272 510.55 179.66 512.318 179.66C514.154 179.66 515.684 180.272 516.908 181.496C518.2 182.72 518.846 184.386 518.846 186.494C518.846 188.602 518.2 190.268 516.908 191.492C515.684 192.716 514.154 193.328 512.318 193.328ZM510.176 207.71H496.508V200.672H518.54V229.742C518.54 234.434 519.186 237.596 520.478 239.228C521.77 240.792 523.708 241.574 526.292 241.574C528.264 241.574 530.066 241.336 531.698 240.86C533.398 240.384 534.724 239.874 535.676 239.33L536.9 246.47C536.492 246.674 535.914 246.946 535.166 247.286C534.418 247.558 533.534 247.83 532.514 248.102C531.562 248.374 530.474 248.612 529.25 248.816C528.094 249.02 526.87 249.122 525.578 249.122C522.586 249.122 520.104 248.714 518.132 247.898C516.16 247.082 514.562 245.858 513.338 244.226C512.182 242.594 511.366 240.588 510.89 238.208C510.414 235.76 510.176 232.938 510.176 229.742V207.71ZM568.01 241.982C570.118 241.982 571.988 241.914 573.62 241.778C575.32 241.642 576.714 241.472 577.802 241.268V227.192C576.714 226.852 575.388 226.58 573.824 226.376C572.328 226.172 570.73 226.07 569.03 226.07C567.466 226.07 565.936 226.206 564.44 226.478C562.944 226.682 561.618 227.09 560.462 227.702C559.306 228.314 558.354 229.13 557.606 230.15C556.858 231.102 556.484 232.326 556.484 233.822C556.484 236.882 557.504 239.024 559.544 240.248C561.652 241.404 564.474 241.982 568.01 241.982ZM567.194 199.55C570.73 199.55 573.688 199.992 576.068 200.876C578.516 201.76 580.488 202.984 581.984 204.548C583.48 206.112 584.534 208.016 585.146 210.26C585.758 212.504 586.064 214.952 586.064 217.604V247.184C584.092 247.524 581.474 247.932 578.21 248.408C575.014 248.884 571.716 249.122 568.316 249.122C565.732 249.122 563.216 248.884 560.768 248.408C558.32 248 556.144 247.252 554.24 246.164C552.336 245.008 550.806 243.444 549.65 241.472C548.494 239.5 547.916 236.984 547.916 233.924C547.916 231.204 548.494 228.926 549.65 227.09C550.874 225.186 552.404 223.656 554.24 222.5C556.144 221.344 558.286 220.528 560.666 220.052C563.114 219.508 565.562 219.236 568.01 219.236C571.342 219.236 574.606 219.61 577.802 220.358V218.012C577.802 216.584 577.632 215.224 577.292 213.932C577.02 212.572 576.442 211.348 575.558 210.26C574.742 209.172 573.586 208.322 572.09 207.71C570.662 207.03 568.792 206.69 566.48 206.69C563.556 206.69 561.006 206.894 558.83 207.302C556.654 207.71 554.988 208.118 553.832 208.526L552.812 201.59C553.968 201.046 555.872 200.57 558.524 200.162C561.244 199.754 564.134 199.55 567.194 199.55Z" fill="#803D99"/>
</g>
<defs>
<filter id="filter0_d_1_101" x="0" y="0" width="690" height="340" filterUnits="userSpaceOnUse" color-interpolation-filters="sRGB">
<feFlood flood-opacity="0" result="BackgroundImageFix"/>
<feColorMatrix in="SourceAlpha" type="matrix" values="0 0 0 0 0 0 0 0 0 0 0 0 0 0 0 0 0 0 127 0" result="hardAlpha"/>
<feOffset dx="4" dy="4"/>
<feGaussianBlur stdDeviation="10"/>
<feComposite in2="hardAlpha" operator="out"/>
<feColorMatrix type="matrix" values="0 0 0 0 0 0 0 0 0 0 0 0 0 0 0 0 0 0 0.25 0"/>
<feBlend mode="normal" in2="BackgroundImageFix" result="effect1_dropShadow_1_101"/>
<feBlend mode="normal" in="SourceGraphic" in2="effect1_dropShadow_1_101" result="shape"/>
</filter>
</defs>
</svg>
