<svg width="690" height="340" viewBox="0 0 690 340" fill="none" xmlns="http://www.w3.org/2000/svg">
<g filter="url(#filter0_d_1_35)">
<rect x="16" y="16" width="650" height="300" fill="#803D99"/>
<path d="M401.752 151.424V160H372.12V115.648H382.104V151.424H401.752ZM417.079 160H407.543V126.336H417.079V160ZM417.975 116.608C417.975 118.357 417.399 119.744 416.247 120.768C415.137 121.749 413.815 122.24 412.279 122.24C410.743 122.24 409.399 121.749 408.247 120.768C407.137 119.744 406.583 118.357 406.583 116.608C406.583 114.859 407.137 113.493 408.247 112.512C409.399 111.488 410.743 110.976 412.279 110.976C413.815 110.976 415.137 111.488 416.247 112.512C417.399 113.493 417.975 114.859 417.975 116.608ZM426.043 127.488C427.664 127.019 429.755 126.592 432.315 126.208C434.875 125.781 437.563 125.568 440.378 125.568C443.237 125.568 445.605 125.952 447.483 126.72C449.403 127.445 450.917 128.491 452.027 129.856C453.136 131.221 453.925 132.843 454.395 134.72C454.864 136.597 455.099 138.688 455.099 140.992V160H445.563V142.144C445.563 139.072 445.157 136.896 444.347 135.616C443.536 134.336 442.021 133.696 439.803 133.696C439.12 133.696 438.395 133.739 437.627 133.824C436.859 133.867 436.176 133.931 435.579 134.016V160H426.043V127.488ZM492.466 158.848C490.845 159.317 488.754 159.744 486.194 160.128C483.634 160.555 480.946 160.768 478.13 160.768C475.271 160.768 472.882 160.384 470.962 159.616C469.085 158.848 467.591 157.781 466.482 156.416C465.373 155.008 464.583 153.344 464.114 151.424C463.645 149.504 463.41 147.392 463.41 145.088V126.336H472.946V143.936C472.946 147.008 473.351 149.227 474.162 150.592C474.973 151.957 476.487 152.64 478.706 152.64C479.389 152.64 480.114 152.619 480.882 152.576C481.65 152.491 482.333 152.405 482.93 152.32V126.336H492.466V158.848ZM514.794 136.576L521.45 126.336H531.306L519.786 142.528C522.346 145.728 524.671 148.843 526.762 151.872C528.852 154.901 530.516 157.611 531.754 160H521.514C521.172 159.36 520.746 158.571 520.234 157.632C519.722 156.651 519.146 155.648 518.506 154.624C517.866 153.557 517.183 152.512 516.458 151.488C515.775 150.421 515.092 149.461 514.41 148.608C513.77 149.419 513.108 150.315 512.426 151.296C511.786 152.277 511.167 153.28 510.57 154.304C509.972 155.285 509.375 156.267 508.778 157.248C508.223 158.229 507.732 159.147 507.306 160H497.578C498.09 158.933 498.794 157.675 499.69 156.224C500.586 154.773 501.546 153.28 502.57 151.744C503.636 150.165 504.746 148.608 505.898 147.072C507.05 145.493 508.18 144.021 509.29 142.656C507.37 139.968 505.45 137.259 503.53 134.528C501.61 131.755 499.711 129.024 497.834 126.336H508.138L514.794 136.576ZM385.304 234C383.555 230.288 381.827 226.427 380.12 222.416C378.413 218.405 376.792 214.437 375.256 210.512C373.72 206.587 372.291 202.832 370.968 199.248C369.688 195.664 368.579 192.464 367.64 189.648H378.648C379.501 192.208 380.419 194.981 381.4 197.968C382.424 200.912 383.448 203.856 384.472 206.8C385.539 209.744 386.563 212.56 387.544 215.248C388.525 217.936 389.443 220.261 390.296 222.224C391.107 220.261 392.003 217.936 392.984 215.248C394.008 212.56 395.032 209.744 396.056 206.8C397.123 203.856 398.147 200.912 399.128 197.968C400.152 194.981 401.091 192.208 401.944 189.648H412.568C411.587 192.464 410.456 195.664 409.176 199.248C407.896 202.832 406.488 206.587 404.952 210.512C403.416 214.437 401.795 218.405 400.088 222.416C398.381 226.427 396.653 230.288 394.904 234H385.304ZM427.204 234H417.668V200.336H427.204V234ZM428.1 190.608C428.1 192.357 427.524 193.744 426.372 194.768C425.262 195.749 423.94 196.24 422.404 196.24C420.868 196.24 419.524 195.749 418.372 194.768C417.262 193.744 416.708 192.357 416.708 190.608C416.708 188.859 417.262 187.493 418.372 186.512C419.524 185.488 420.868 184.976 422.404 184.976C423.94 184.976 425.262 185.488 426.372 186.512C427.524 187.493 428.1 188.859 428.1 190.608ZM434.568 217.168C434.568 214.736 434.952 212.453 435.72 210.32C436.53 208.144 437.682 206.267 439.176 204.688C440.669 203.067 442.482 201.787 444.616 200.848C446.749 199.909 449.181 199.44 451.912 199.44C453.704 199.44 455.346 199.611 456.84 199.952C458.333 200.251 459.784 200.699 461.192 201.296L459.208 208.912C458.312 208.571 457.33 208.272 456.264 208.016C455.197 207.76 454.002 207.632 452.68 207.632C449.864 207.632 447.752 208.507 446.344 210.256C444.978 212.005 444.296 214.309 444.296 217.168C444.296 220.197 444.936 222.544 446.216 224.208C447.538 225.872 449.821 226.704 453.064 226.704C454.216 226.704 455.453 226.597 456.776 226.384C458.098 226.171 459.314 225.829 460.424 225.36L461.768 233.168C460.658 233.637 459.272 234.043 457.608 234.384C455.944 234.725 454.109 234.896 452.104 234.896C449.032 234.896 446.386 234.448 444.168 233.552C441.949 232.613 440.114 231.355 438.664 229.776C437.256 228.197 436.21 226.341 435.528 224.208C434.888 222.032 434.568 219.685 434.568 217.168ZM467.848 191.952L477.384 190.416V200.336H488.84V208.272H477.384V220.112C477.384 222.117 477.725 223.717 478.408 224.912C479.133 226.107 480.562 226.704 482.696 226.704C483.72 226.704 484.765 226.619 485.832 226.448C486.941 226.235 487.944 225.957 488.84 225.616L490.184 233.04C489.032 233.509 487.752 233.915 486.344 234.256C484.936 234.597 483.208 234.768 481.16 234.768C478.557 234.768 476.402 234.427 474.696 233.744C472.989 233.019 471.624 232.037 470.6 230.8C469.576 229.52 468.85 227.984 468.424 226.192C468.04 224.4 467.848 222.416 467.848 220.24V191.952ZM526.843 217.104C526.843 219.749 526.459 222.181 525.691 224.4C524.923 226.576 523.814 228.453 522.363 230.032C520.912 231.568 519.163 232.763 517.115 233.616C515.11 234.469 512.848 234.896 510.331 234.896C507.856 234.896 505.595 234.469 503.547 233.616C501.542 232.763 499.814 231.568 498.363 230.032C496.912 228.453 495.782 226.576 494.971 224.4C494.16 222.181 493.755 219.749 493.755 217.104C493.755 214.459 494.16 212.048 494.971 209.872C495.824 207.696 496.976 205.84 498.427 204.304C499.92 202.768 501.67 201.573 503.675 200.72C505.723 199.867 507.942 199.44 510.331 199.44C512.763 199.44 514.982 199.867 516.987 200.72C519.035 201.573 520.784 202.768 522.235 204.304C523.686 205.84 524.816 207.696 525.627 209.872C526.438 212.048 526.843 214.459 526.843 217.104ZM517.115 217.104C517.115 214.16 516.518 211.856 515.323 210.192C514.171 208.485 512.507 207.632 510.331 207.632C508.155 207.632 506.47 208.485 505.275 210.192C504.08 211.856 503.483 214.16 503.483 217.104C503.483 220.048 504.08 222.395 505.275 224.144C506.47 225.851 508.155 226.704 510.331 226.704C512.507 226.704 514.171 225.851 515.323 224.144C516.518 222.395 517.115 220.048 517.115 217.104ZM554.518 208.784C553.665 208.571 552.662 208.357 551.51 208.144C550.358 207.888 549.121 207.76 547.798 207.76C547.201 207.76 546.475 207.824 545.622 207.952C544.811 208.037 544.193 208.144 543.766 208.272V234H534.23V202.128C535.937 201.531 537.942 200.976 540.246 200.464C542.593 199.909 545.195 199.632 548.054 199.632C548.566 199.632 549.185 199.675 549.91 199.76C550.635 199.803 551.361 199.888 552.086 200.016C552.811 200.101 553.537 200.229 554.262 200.4C554.987 200.528 555.606 200.699 556.118 200.912L554.518 208.784ZM570.766 234H561.23V200.336H570.766V234ZM571.662 190.608C571.662 192.357 571.086 193.744 569.934 194.768C568.825 195.749 567.502 196.24 565.966 196.24C564.43 196.24 563.086 195.749 561.934 194.768C560.825 193.744 560.27 192.357 560.27 190.608C560.27 188.859 560.825 187.493 561.934 186.512C563.086 185.488 564.43 184.976 565.966 184.976C567.502 184.976 568.825 185.488 569.934 186.512C571.086 187.493 571.662 188.859 571.662 190.608ZM592.594 227.344C593.533 227.344 594.429 227.323 595.282 227.28C596.135 227.237 596.818 227.173 597.33 227.088V219.856C596.946 219.771 596.37 219.685 595.602 219.6C594.834 219.515 594.13 219.472 593.49 219.472C592.594 219.472 591.741 219.536 590.93 219.664C590.162 219.749 589.479 219.941 588.882 220.24C588.285 220.539 587.815 220.944 587.474 221.456C587.133 221.968 586.962 222.608 586.962 223.376C586.962 224.869 587.453 225.915 588.434 226.512C589.458 227.067 590.845 227.344 592.594 227.344ZM591.826 199.44C594.642 199.44 596.989 199.76 598.866 200.4C600.743 201.04 602.237 201.957 603.346 203.152C604.498 204.347 605.309 205.797 605.778 207.504C606.247 209.211 606.482 211.109 606.482 213.2V233.04C605.117 233.339 603.218 233.68 600.786 234.064C598.354 234.491 595.41 234.704 591.954 234.704C589.778 234.704 587.794 234.512 586.002 234.128C584.253 233.744 582.738 233.125 581.458 232.272C580.178 231.376 579.197 230.224 578.514 228.816C577.831 227.408 577.49 225.68 577.49 223.632C577.49 221.669 577.874 220.005 578.642 218.64C579.453 217.275 580.519 216.187 581.842 215.376C583.165 214.565 584.679 213.989 586.386 213.648C588.093 213.264 589.863 213.072 591.698 213.072C592.935 213.072 594.023 213.136 594.962 213.264C595.943 213.349 596.733 213.477 597.33 213.648V212.752C597.33 211.131 596.839 209.829 595.858 208.848C594.877 207.867 593.17 207.376 590.738 207.376C589.117 207.376 587.517 207.504 585.938 207.76C584.359 207.973 582.994 208.293 581.842 208.72L580.626 201.04C581.181 200.869 581.863 200.699 582.674 200.528C583.527 200.315 584.445 200.144 585.426 200.016C586.407 199.845 587.431 199.717 588.498 199.632C589.607 199.504 590.717 199.44 591.826 199.44Z" fill="black"/>
<rect x="58" y="83" width="280" height="180" rx="35" fill="black"/>
<path d="M142.661 209.453C148.079 209.453 150.788 211.473 150.788 215.513V216.867C150.788 219.053 149.814 220.455 147.865 221.073C145.917 221.691 142.376 222 137.243 222H122.558L120.918 221.929C104.902 221.929 95.8005 221.192 93.6143 219.719C91.4281 218.245 90.335 212.946 90.335 203.821V192.558L90.4062 190.918L90.5488 182.791V169.745L90.6201 166.537V158.624L90.5488 153.919C90.5488 152.351 90.5488 150.782 90.5488 149.214L90.4775 144.509V139.875L90.335 130.536C90.335 126.639 90.6676 124.191 91.333 123.193C92.0459 122.148 93.6618 121.625 96.1807 121.625C98.6995 121.625 100.624 122.029 101.955 122.837C103.286 123.597 104.189 125.142 104.664 127.471C105.187 129.799 105.448 142.489 105.448 165.539C105.448 188.589 106.28 201.825 107.943 205.247C108.846 207.101 110.842 208.312 113.932 208.883C117.068 209.453 122.106 209.738 129.045 209.738L133.679 209.667C134.724 209.619 135.746 209.596 136.744 209.596L139.738 209.453H142.661Z" fill="#803D99"/>
<path d="M299.083 222.824H241.125C237.798 222.824 235.755 222.515 234.994 221.897C234.281 221.28 233.925 219.711 233.925 217.192V216.337C233.925 213.295 234.4 211.465 235.351 210.848C236.301 210.277 238.654 209.992 242.408 209.992H263.438L264.223 210.063L297.158 209.992C301.15 209.992 303.598 210.23 304.501 210.705C305.451 211.18 305.927 212.606 305.927 214.982V217.406C305.927 219.878 305.451 221.398 304.501 221.969C303.598 222.539 301.792 222.824 299.083 222.824Z" fill="#803D99"/>
<path d="M169.402 221.938C167.074 221.938 165.909 219.966 165.909 216.021V214.81C165.909 211.863 168.143 208.631 172.61 205.114C173.513 204.401 179.383 200.766 190.219 194.207C201.055 187.648 206.473 184.274 206.473 184.084C206.473 183.894 200.983 180.377 190.005 173.533C179.026 166.689 173.062 162.887 172.111 162.127C168.119 158.895 166.123 155.331 166.123 151.434C166.123 147.536 167.454 145.588 170.115 145.588C170.781 145.588 173.109 146.705 177.102 148.938C194.876 158.919 209.324 167.996 220.445 176.171C223.107 178.119 224.438 180.757 224.438 184.084C224.438 187.411 222.917 190.072 219.875 192.068C204.096 202.762 188.84 212.124 174.107 220.156C171.921 221.344 170.353 221.938 169.402 221.938Z" fill="#803D99"/>
</g>
<defs>
<filter id="filter0_d_1_35" x="0" y="0" width="690" height="340" filterUnits="userSpaceOnUse" color-interpolation-filters="sRGB">
<feFlood flood-opacity="0" result="BackgroundImageFix"/>
<feColorMatrix in="SourceAlpha" type="matrix" values="0 0 0 0 0 0 0 0 0 0 0 0 0 0 0 0 0 0 127 0" result="hardAlpha"/>
<feOffset dx="4" dy="4"/>
<feGaussianBlur stdDeviation="10"/>
<feComposite in2="hardAlpha" operator="out"/>
<feColorMatrix type="matrix" values="0 0 0 0 0 0 0 0 0 0 0 0 0 0 0 0 0 0 0.25 0"/>
<feBlend mode="normal" in2="BackgroundImageFix" result="effect1_dropShadow_1_35"/>
<feBlend mode="normal" in="SourceGraphic" in2="effect1_dropShadow_1_35" result="shape"/>
</filter>
</defs>
</svg>
