<svg width="690" height="340" viewBox="0 0 690 340" fill="none" xmlns="http://www.w3.org/2000/svg">
<g filter="url(#filter0_d_1_84)">
<rect x="16" y="16" width="650" height="300" fill="#803D99"/>
<path d="M402.752 151.424V160H373.12V115.648H383.104V151.424H402.752ZM418.079 160H408.543V126.336H418.079V160ZM418.975 116.608C418.975 118.357 418.399 119.744 417.247 120.768C416.137 121.749 414.815 122.24 413.279 122.24C411.743 122.24 410.399 121.749 409.247 120.768C408.137 119.744 407.583 118.357 407.583 116.608C407.583 114.859 408.137 113.493 409.247 112.512C410.399 111.488 411.743 110.976 413.279 110.976C414.815 110.976 416.137 111.488 417.247 112.512C418.399 113.493 418.975 114.859 418.975 116.608ZM427.043 127.488C428.664 127.019 430.755 126.592 433.315 126.208C435.875 125.781 438.563 125.568 441.378 125.568C444.237 125.568 446.605 125.952 448.483 126.72C450.403 127.445 451.917 128.491 453.027 129.856C454.136 131.221 454.925 132.843 455.395 134.72C455.864 136.597 456.099 138.688 456.099 140.992V160H446.563V142.144C446.563 139.072 446.157 136.896 445.347 135.616C444.536 134.336 443.021 133.696 440.803 133.696C440.12 133.696 439.395 133.739 438.627 133.824C437.859 133.867 437.176 133.931 436.579 134.016V160H427.043V127.488ZM493.466 158.848C491.845 159.317 489.754 159.744 487.194 160.128C484.634 160.555 481.946 160.768 479.13 160.768C476.271 160.768 473.882 160.384 471.962 159.616C470.085 158.848 468.591 157.781 467.482 156.416C466.373 155.008 465.583 153.344 465.114 151.424C464.645 149.504 464.41 147.392 464.41 145.088V126.336H473.946V143.936C473.946 147.008 474.351 149.227 475.162 150.592C475.973 151.957 477.487 152.64 479.706 152.64C480.389 152.64 481.114 152.619 481.882 152.576C482.65 152.491 483.333 152.405 483.93 152.32V126.336H493.466V158.848ZM515.794 136.576L522.45 126.336H532.306L520.786 142.528C523.346 145.728 525.671 148.843 527.762 151.872C529.852 154.901 531.516 157.611 532.754 160H522.514C522.172 159.36 521.746 158.571 521.234 157.632C520.722 156.651 520.146 155.648 519.506 154.624C518.866 153.557 518.183 152.512 517.458 151.488C516.775 150.421 516.092 149.461 515.41 148.608C514.77 149.419 514.108 150.315 513.426 151.296C512.786 152.277 512.167 153.28 511.57 154.304C510.972 155.285 510.375 156.267 509.778 157.248C509.223 158.229 508.732 159.147 508.306 160H498.578C499.09 158.933 499.794 157.675 500.69 156.224C501.586 154.773 502.546 153.28 503.57 151.744C504.636 150.165 505.746 148.608 506.898 147.072C508.05 145.493 509.18 144.021 510.29 142.656C508.37 139.968 506.45 137.259 504.53 134.528C502.61 131.755 500.711 129.024 498.834 126.336H509.138L515.794 136.576ZM386.304 234C384.555 230.288 382.827 226.427 381.12 222.416C379.413 218.405 377.792 214.437 376.256 210.512C374.72 206.587 373.291 202.832 371.968 199.248C370.688 195.664 369.579 192.464 368.64 189.648H379.648C380.501 192.208 381.419 194.981 382.4 197.968C383.424 200.912 384.448 203.856 385.472 206.8C386.539 209.744 387.563 212.56 388.544 215.248C389.525 217.936 390.443 220.261 391.296 222.224C392.107 220.261 393.003 217.936 393.984 215.248C395.008 212.56 396.032 209.744 397.056 206.8C398.123 203.856 399.147 200.912 400.128 197.968C401.152 194.981 402.091 192.208 402.944 189.648H413.568C412.587 192.464 411.456 195.664 410.176 199.248C408.896 202.832 407.488 206.587 405.952 210.512C404.416 214.437 402.795 218.405 401.088 222.416C399.381 226.427 397.653 230.288 395.904 234H386.304ZM428.204 234H418.668V200.336H428.204V234ZM429.1 190.608C429.1 192.357 428.524 193.744 427.372 194.768C426.262 195.749 424.94 196.24 423.404 196.24C421.868 196.24 420.524 195.749 419.372 194.768C418.262 193.744 417.708 192.357 417.708 190.608C417.708 188.859 418.262 187.493 419.372 186.512C420.524 185.488 421.868 184.976 423.404 184.976C424.94 184.976 426.262 185.488 427.372 186.512C428.524 187.493 429.1 188.859 429.1 190.608ZM435.568 217.168C435.568 214.736 435.952 212.453 436.72 210.32C437.53 208.144 438.682 206.267 440.176 204.688C441.669 203.067 443.482 201.787 445.616 200.848C447.749 199.909 450.181 199.44 452.912 199.44C454.704 199.44 456.346 199.611 457.84 199.952C459.333 200.251 460.784 200.699 462.192 201.296L460.208 208.912C459.312 208.571 458.33 208.272 457.264 208.016C456.197 207.76 455.002 207.632 453.68 207.632C450.864 207.632 448.752 208.507 447.344 210.256C445.978 212.005 445.296 214.309 445.296 217.168C445.296 220.197 445.936 222.544 447.216 224.208C448.538 225.872 450.821 226.704 454.064 226.704C455.216 226.704 456.453 226.597 457.776 226.384C459.098 226.171 460.314 225.829 461.424 225.36L462.768 233.168C461.658 233.637 460.272 234.043 458.608 234.384C456.944 234.725 455.109 234.896 453.104 234.896C450.032 234.896 447.386 234.448 445.168 233.552C442.949 232.613 441.114 231.355 439.664 229.776C438.256 228.197 437.21 226.341 436.528 224.208C435.888 222.032 435.568 219.685 435.568 217.168ZM468.848 191.952L478.384 190.416V200.336H489.84V208.272H478.384V220.112C478.384 222.117 478.725 223.717 479.408 224.912C480.133 226.107 481.562 226.704 483.696 226.704C484.72 226.704 485.765 226.619 486.832 226.448C487.941 226.235 488.944 225.957 489.84 225.616L491.184 233.04C490.032 233.509 488.752 233.915 487.344 234.256C485.936 234.597 484.208 234.768 482.16 234.768C479.557 234.768 477.402 234.427 475.696 233.744C473.989 233.019 472.624 232.037 471.6 230.8C470.576 229.52 469.85 227.984 469.424 226.192C469.04 224.4 468.848 222.416 468.848 220.24V191.952ZM527.843 217.104C527.843 219.749 527.459 222.181 526.691 224.4C525.923 226.576 524.814 228.453 523.363 230.032C521.912 231.568 520.163 232.763 518.115 233.616C516.11 234.469 513.848 234.896 511.331 234.896C508.856 234.896 506.595 234.469 504.547 233.616C502.542 232.763 500.814 231.568 499.363 230.032C497.912 228.453 496.782 226.576 495.971 224.4C495.16 222.181 494.755 219.749 494.755 217.104C494.755 214.459 495.16 212.048 495.971 209.872C496.824 207.696 497.976 205.84 499.427 204.304C500.92 202.768 502.67 201.573 504.675 200.72C506.723 199.867 508.942 199.44 511.331 199.44C513.763 199.44 515.982 199.867 517.987 200.72C520.035 201.573 521.784 202.768 523.235 204.304C524.686 205.84 525.816 207.696 526.627 209.872C527.438 212.048 527.843 214.459 527.843 217.104ZM518.115 217.104C518.115 214.16 517.518 211.856 516.323 210.192C515.171 208.485 513.507 207.632 511.331 207.632C509.155 207.632 507.47 208.485 506.275 210.192C505.08 211.856 504.483 214.16 504.483 217.104C504.483 220.048 505.08 222.395 506.275 224.144C507.47 225.851 509.155 226.704 511.331 226.704C513.507 226.704 515.171 225.851 516.323 224.144C517.518 222.395 518.115 220.048 518.115 217.104ZM555.518 208.784C554.665 208.571 553.662 208.357 552.51 208.144C551.358 207.888 550.121 207.76 548.798 207.76C548.201 207.76 547.475 207.824 546.622 207.952C545.811 208.037 545.193 208.144 544.766 208.272V234H535.23V202.128C536.937 201.531 538.942 200.976 541.246 200.464C543.593 199.909 546.195 199.632 549.054 199.632C549.566 199.632 550.185 199.675 550.91 199.76C551.635 199.803 552.361 199.888 553.086 200.016C553.811 200.101 554.537 200.229 555.262 200.4C555.987 200.528 556.606 200.699 557.118 200.912L555.518 208.784ZM571.766 234H562.23V200.336H571.766V234ZM572.662 190.608C572.662 192.357 572.086 193.744 570.934 194.768C569.825 195.749 568.502 196.24 566.966 196.24C565.43 196.24 564.086 195.749 562.934 194.768C561.825 193.744 561.27 192.357 561.27 190.608C561.27 188.859 561.825 187.493 562.934 186.512C564.086 185.488 565.43 184.976 566.966 184.976C568.502 184.976 569.825 185.488 570.934 186.512C572.086 187.493 572.662 188.859 572.662 190.608ZM593.594 227.344C594.533 227.344 595.429 227.323 596.282 227.28C597.135 227.237 597.818 227.173 598.33 227.088V219.856C597.946 219.771 597.37 219.685 596.602 219.6C595.834 219.515 595.13 219.472 594.49 219.472C593.594 219.472 592.741 219.536 591.93 219.664C591.162 219.749 590.479 219.941 589.882 220.24C589.285 220.539 588.815 220.944 588.474 221.456C588.133 221.968 587.962 222.608 587.962 223.376C587.962 224.869 588.453 225.915 589.434 226.512C590.458 227.067 591.845 227.344 593.594 227.344ZM592.826 199.44C595.642 199.44 597.989 199.76 599.866 200.4C601.743 201.04 603.237 201.957 604.346 203.152C605.498 204.347 606.309 205.797 606.778 207.504C607.247 209.211 607.482 211.109 607.482 213.2V233.04C606.117 233.339 604.218 233.68 601.786 234.064C599.354 234.491 596.41 234.704 592.954 234.704C590.778 234.704 588.794 234.512 587.002 234.128C585.253 233.744 583.738 233.125 582.458 232.272C581.178 231.376 580.197 230.224 579.514 228.816C578.831 227.408 578.49 225.68 578.49 223.632C578.49 221.669 578.874 220.005 579.642 218.64C580.453 217.275 581.519 216.187 582.842 215.376C584.165 214.565 585.679 213.989 587.386 213.648C589.093 213.264 590.863 213.072 592.698 213.072C593.935 213.072 595.023 213.136 595.962 213.264C596.943 213.349 597.733 213.477 598.33 213.648V212.752C598.33 211.131 597.839 209.829 596.858 208.848C595.877 207.867 594.17 207.376 591.738 207.376C590.117 207.376 588.517 207.504 586.938 207.76C585.359 207.973 583.994 208.293 582.842 208.72L581.626 201.04C582.181 200.869 582.863 200.699 583.674 200.528C584.527 200.315 585.445 200.144 586.426 200.016C587.407 199.845 588.431 199.717 589.498 199.632C590.607 199.504 591.717 199.44 592.826 199.44Z" fill="black"/>
<line x1="327" y1="240.002" x2="327" y2="104.998" stroke="black" stroke-width="9"/>
<path d="M124.661 213.453C130.079 213.453 132.788 215.473 132.788 219.513V220.867C132.788 223.053 131.814 224.455 129.865 225.073C127.917 225.691 124.376 226 119.243 226H104.558L102.918 225.929C86.9017 225.929 77.8005 225.192 75.6143 223.719C73.4281 222.245 72.335 216.946 72.335 207.821V196.558L72.4062 194.918L72.5488 186.791V173.745L72.6201 170.537V162.624L72.5488 157.919C72.5488 156.351 72.5488 154.782 72.5488 153.214L72.4775 148.509V143.875L72.335 134.536C72.335 130.639 72.6676 128.191 73.333 127.193C74.0459 126.148 75.6618 125.625 78.1807 125.625C80.6995 125.625 82.6243 126.029 83.9551 126.837C85.2858 127.597 86.1888 129.142 86.6641 131.471C87.1868 133.799 87.4482 146.489 87.4482 169.539C87.4482 192.589 88.2799 205.825 89.9434 209.247C90.8464 211.101 92.8424 212.312 95.9316 212.883C99.0684 213.453 104.106 213.738 111.045 213.738L115.679 213.667C116.724 213.619 117.746 213.596 118.744 213.596L121.738 213.453H124.661Z" fill="black"/>
<path d="M281.083 226.824H223.125C219.798 226.824 217.755 226.515 216.994 225.897C216.281 225.28 215.925 223.711 215.925 221.192V220.337C215.925 217.295 216.4 215.465 217.351 214.848C218.301 214.277 220.654 213.992 224.408 213.992H245.438L246.223 214.063L279.158 213.992C283.15 213.992 285.598 214.23 286.501 214.705C287.451 215.18 287.927 216.606 287.927 218.982V221.406C287.927 223.878 287.451 225.398 286.501 225.969C285.598 226.539 283.792 226.824 281.083 226.824Z" fill="black"/>
<path d="M151.402 225.938C149.074 225.938 147.909 223.966 147.909 220.021V218.81C147.909 215.863 150.143 212.631 154.61 209.114C155.513 208.401 161.383 204.766 172.219 198.207C183.055 191.648 188.473 188.274 188.473 188.084C188.473 187.894 182.983 184.377 172.005 177.533C161.026 170.689 155.062 166.887 154.111 166.127C150.119 162.895 148.123 159.331 148.123 155.434C148.123 151.536 149.454 149.588 152.115 149.588C152.781 149.588 155.109 150.705 159.102 152.938C176.876 162.919 191.324 171.996 202.445 180.171C205.107 182.119 206.438 184.757 206.438 188.084C206.438 191.411 204.917 194.072 201.875 196.068C186.096 206.762 170.84 216.124 156.107 224.156C153.921 225.344 152.353 225.938 151.402 225.938Z" fill="black"/>
</g>
<defs>
<filter id="filter0_d_1_84" x="0" y="0" width="690" height="340" filterUnits="userSpaceOnUse" color-interpolation-filters="sRGB">
<feFlood flood-opacity="0" result="BackgroundImageFix"/>
<feColorMatrix in="SourceAlpha" type="matrix" values="0 0 0 0 0 0 0 0 0 0 0 0 0 0 0 0 0 0 127 0" result="hardAlpha"/>
<feOffset dx="4" dy="4"/>
<feGaussianBlur stdDeviation="10"/>
<feComposite in2="hardAlpha" operator="out"/>
<feColorMatrix type="matrix" values="0 0 0 0 0 0 0 0 0 0 0 0 0 0 0 0 0 0 0.25 0"/>
<feBlend mode="normal" in2="BackgroundImageFix" result="effect1_dropShadow_1_84"/>
<feBlend mode="normal" in="SourceGraphic" in2="effect1_dropShadow_1_84" result="shape"/>
</filter>
</defs>
</svg>
