<svg width="650" height="300" viewBox="0 0 650 300" fill="none" xmlns="http://www.w3.org/2000/svg">
<rect width="650" height="300" fill="#803D99"/>
<path d="M90.766 121.33C93.214 121.33 95.254 121.16 96.886 120.82C98.586 120.412 99.912 119.868 100.864 119.188C101.816 118.44 102.496 117.59 102.904 116.638C103.312 115.618 103.516 114.53 103.516 113.374C103.516 111.674 103.108 110.246 102.292 109.09C101.476 107.866 100.354 106.812 98.926 105.928C97.566 104.976 96.002 104.16 94.234 103.48C92.466 102.732 90.63 102.018 88.726 101.338C86.89 100.658 85.054 99.91 83.218 99.094C81.45 98.278 79.852 97.292 78.424 96.136C77.064 94.912 75.942 93.484 75.058 91.852C74.174 90.152 73.732 88.078 73.732 85.63C73.732 81.278 75.024 77.742 77.608 75.022C80.192 72.302 83.932 70.568 88.828 69.82V59.314H96.376V69.514C99.096 69.65 101.578 69.99 103.822 70.534C106.134 71.01 107.97 71.52 109.33 72.064L107.596 79.204C106.168 78.66 104.366 78.116 102.19 77.572C100.014 76.96 97.26 76.654 93.928 76.654C90.256 76.654 87.434 77.334 85.462 78.694C83.558 80.054 82.606 82.026 82.606 84.61C82.606 86.038 82.878 87.228 83.422 88.18C84.034 89.132 84.884 89.982 85.972 90.73C87.06 91.478 88.318 92.158 89.746 92.77C91.242 93.382 92.908 94.028 94.744 94.708C97.056 95.592 99.3 96.544 101.476 97.564C103.652 98.516 105.556 99.672 107.188 101.032C108.82 102.392 110.112 104.024 111.064 105.928C112.084 107.832 112.594 110.11 112.594 112.762C112.594 116.774 111.268 120.174 108.616 122.962C105.964 125.75 101.884 127.484 96.376 128.164V139.894H88.828V128.47C84.544 128.334 81.076 127.858 78.424 127.042C75.772 126.226 73.8 125.444 72.508 124.696L74.752 117.658C76.588 118.542 78.764 119.392 81.28 120.208C83.796 120.956 86.958 121.33 90.766 121.33ZM202.048 123.472C202.048 125.512 201.368 127.314 200.008 128.878C198.648 130.442 196.846 131.224 194.602 131.224C192.29 131.224 190.454 130.442 189.094 128.878C187.734 127.314 187.054 125.512 187.054 123.472C187.054 121.364 187.734 119.528 189.094 117.964C190.454 116.4 192.29 115.618 194.602 115.618C196.846 115.618 198.648 116.4 200.008 117.964C201.368 119.528 202.048 121.364 202.048 123.472ZM202.048 90.526C202.048 92.566 201.368 94.368 200.008 95.932C198.648 97.496 196.846 98.278 194.602 98.278C192.29 98.278 190.454 97.496 189.094 95.932C187.734 94.368 187.054 92.566 187.054 90.526C187.054 88.418 187.734 86.582 189.094 85.018C190.454 83.454 192.29 82.672 194.602 82.672C196.846 82.672 198.648 83.454 200.008 85.018C201.368 86.582 202.048 88.418 202.048 90.526ZM317.92 122.86V130H280.282V66.862H288.646V122.86H317.92ZM343.318 75.328C341.55 75.328 340.02 74.716 338.728 73.492C337.436 72.268 336.79 70.602 336.79 68.494C336.79 66.386 337.436 64.72 338.728 63.496C340.02 62.272 341.55 61.66 343.318 61.66C345.154 61.66 346.684 62.272 347.908 63.496C349.2 64.72 349.846 66.386 349.846 68.494C349.846 70.602 349.2 72.268 347.908 73.492C346.684 74.716 345.154 75.328 343.318 75.328ZM341.176 89.71H327.508V82.672H349.54V111.742C349.54 116.434 350.186 119.596 351.478 121.228C352.77 122.792 354.708 123.574 357.292 123.574C359.264 123.574 361.066 123.336 362.698 122.86C364.398 122.384 365.724 121.874 366.676 121.33L367.9 128.47C367.492 128.674 366.914 128.946 366.166 129.286C365.418 129.558 364.534 129.83 363.514 130.102C362.562 130.374 361.474 130.612 360.25 130.816C359.094 131.02 357.87 131.122 356.578 131.122C353.586 131.122 351.104 130.714 349.132 129.898C347.16 129.082 345.562 127.858 344.338 126.226C343.182 124.594 342.366 122.588 341.89 120.208C341.414 117.76 341.176 114.938 341.176 111.742V89.71ZM380.242 83.998C383.302 83.25 386.328 82.672 389.32 82.264C392.38 81.856 395.236 81.652 397.888 81.652C404.212 81.652 408.972 83.284 412.168 86.548C415.432 89.812 417.064 95.048 417.064 102.256V130H408.7V103.786C408.7 100.726 408.428 98.244 407.884 96.34C407.34 94.436 406.558 92.974 405.538 91.954C404.586 90.866 403.396 90.118 401.968 89.71C400.608 89.302 399.112 89.098 397.48 89.098C396.12 89.098 394.658 89.2 393.094 89.404C391.598 89.54 390.136 89.744 388.708 90.016V130H380.242V83.998ZM467.758 128.674C465.922 129.15 463.474 129.66 460.414 130.204C457.422 130.748 453.886 131.02 449.806 131.02C446.202 131.02 443.21 130.51 440.83 129.49C438.45 128.402 436.512 126.906 435.016 125.002C433.52 123.03 432.466 120.718 431.854 118.066C431.242 115.414 430.936 112.49 430.936 109.294V82.672H439.3V107.458C439.3 113.306 440.15 117.454 441.85 119.902C443.618 122.35 446.542 123.574 450.622 123.574C451.506 123.574 452.39 123.54 453.274 123.472C454.226 123.404 455.11 123.336 455.926 123.268C456.742 123.132 457.456 123.03 458.068 122.962C458.68 122.826 459.088 122.724 459.292 122.656V82.672H467.758V128.674ZM513.76 130C513.08 128.64 512.23 127.144 511.21 125.512C510.258 123.88 509.204 122.214 508.048 120.514C506.892 118.746 505.668 117.012 504.376 115.312C503.152 113.612 501.928 112.014 500.704 110.518C499.48 112.082 498.188 113.714 496.828 115.414C495.468 117.114 494.142 118.848 492.85 120.616C491.626 122.316 490.47 123.982 489.382 125.614C488.294 127.246 487.376 128.708 486.628 130H477.958C480.202 125.92 482.922 121.738 486.118 117.454C489.382 113.102 492.578 108.988 495.706 105.112L478.672 82.672H488.158L500.908 99.196L512.638 82.672H521.614L506.008 104.602C509.068 108.614 512.128 112.796 515.188 117.148C518.316 121.5 520.968 125.784 523.144 130H513.76ZM533.14 58.702H541.606L569.86 146.83H561.292L533.14 58.702ZM71.998 192.73L74.344 185.692L113.716 202.42V209.662L74.344 226.39L71.998 219.352L104.332 205.99L71.998 192.73ZM179.404 168.862C180.22 173.146 181.24 177.838 182.464 182.938C183.756 187.97 185.082 193.036 186.442 198.136C187.87 203.168 189.298 207.996 190.726 212.62C192.154 217.244 193.48 221.29 194.704 224.758C195.792 221.29 197.05 217.21 198.478 212.518C199.974 207.826 201.436 202.964 202.864 197.932C204.292 192.832 205.618 187.766 206.842 182.734C208.134 177.702 209.188 173.078 210.004 168.862H218.776C218.232 171.582 217.348 175.254 216.124 179.878C214.9 184.434 213.438 189.568 211.738 195.28C210.038 200.924 208.134 206.942 206.026 213.334C203.986 219.658 201.844 225.88 199.6 232H189.196C187.088 225.88 185.014 219.658 182.974 213.334C181.002 207.01 179.166 201.026 177.466 195.382C175.766 189.67 174.304 184.502 173.08 179.878C171.856 175.254 170.938 171.582 170.326 168.862H179.404ZM241.318 177.328C239.55 177.328 238.02 176.716 236.728 175.492C235.436 174.268 234.79 172.602 234.79 170.494C234.79 168.386 235.436 166.72 236.728 165.496C238.02 164.272 239.55 163.66 241.318 163.66C243.154 163.66 244.684 164.272 245.908 165.496C247.2 166.72 247.846 168.386 247.846 170.494C247.846 172.602 247.2 174.268 245.908 175.492C244.684 176.716 243.154 177.328 241.318 177.328ZM239.176 191.71H225.508V184.672H247.54V213.742C247.54 218.434 248.186 221.596 249.478 223.228C250.77 224.792 252.708 225.574 255.292 225.574C257.264 225.574 259.066 225.336 260.698 224.86C262.398 224.384 263.724 223.874 264.676 223.33L265.9 230.47C265.492 230.674 264.914 230.946 264.166 231.286C263.418 231.558 262.534 231.83 261.514 232.102C260.562 232.374 259.474 232.612 258.25 232.816C257.094 233.02 255.87 233.122 254.578 233.122C251.586 233.122 249.104 232.714 247.132 231.898C245.16 231.082 243.562 229.858 242.338 228.226C241.182 226.594 240.366 224.588 239.89 222.208C239.414 219.76 239.176 216.938 239.176 213.742V191.71ZM275.998 208.438C275.998 204.154 276.678 200.448 278.038 197.32C279.398 194.192 281.268 191.608 283.648 189.568C286.028 187.528 288.782 186.032 291.91 185.08C295.106 184.06 298.506 183.55 302.11 183.55C304.422 183.55 306.7 183.72 308.944 184.06C311.256 184.332 313.704 184.876 316.288 185.692L314.35 192.934C312.106 192.118 310.032 191.608 308.128 191.404C306.292 191.132 304.422 190.996 302.518 190.996C300.07 190.996 297.758 191.336 295.582 192.016C293.406 192.628 291.502 193.648 289.87 195.076C288.306 196.436 287.048 198.238 286.096 200.482C285.144 202.658 284.668 205.31 284.668 208.438C284.668 211.43 285.11 214.014 285.994 216.19C286.878 218.298 288.102 220.066 289.666 221.494C291.298 222.854 293.236 223.874 295.48 224.554C297.724 225.234 300.206 225.574 302.926 225.574C305.102 225.574 307.176 225.472 309.148 225.268C311.188 224.996 313.398 224.452 315.778 223.636L317.002 230.674C314.622 231.558 312.208 232.17 309.76 232.51C307.312 232.918 304.66 233.122 301.804 233.122C297.996 233.122 294.494 232.612 291.298 231.592C288.17 230.504 285.45 228.94 283.138 226.9C280.894 224.86 279.126 222.31 277.834 219.25C276.61 216.122 275.998 212.518 275.998 208.438ZM346.786 184.672H366.778V191.71H346.786V213.742C346.786 216.122 346.956 218.06 347.296 219.556C347.636 221.052 348.18 222.276 348.928 223.228C349.744 224.112 350.764 224.724 351.988 225.064C353.212 225.404 354.708 225.574 356.476 225.574C358.924 225.574 360.896 225.37 362.392 224.962C363.888 224.554 365.316 224.01 366.676 223.33L367.9 230.47C366.948 230.878 365.418 231.422 363.31 232.102C361.27 232.782 358.72 233.122 355.66 233.122C352.124 233.122 349.234 232.714 346.99 231.898C344.746 231.082 342.978 229.858 341.686 228.226C340.462 226.594 339.612 224.588 339.136 222.208C338.66 219.76 338.422 216.938 338.422 213.742V191.71H328.426V184.672H338.422V171.412L346.786 169.984V184.672ZM419.92 208.336C419.92 212.076 419.376 215.476 418.288 218.536C417.268 221.528 415.806 224.112 413.902 226.288C411.998 228.464 409.72 230.164 407.068 231.388C404.416 232.544 401.526 233.122 398.398 233.122C395.338 233.122 392.482 232.544 389.83 231.388C387.246 230.164 385.002 228.464 383.098 226.288C381.194 224.112 379.698 221.528 378.61 218.536C377.59 215.476 377.08 212.076 377.08 208.336C377.08 204.596 377.59 201.196 378.61 198.136C379.698 195.076 381.194 192.492 383.098 190.384C385.002 188.208 387.246 186.542 389.83 185.386C392.482 184.162 395.338 183.55 398.398 183.55C401.526 183.55 404.416 184.162 407.068 185.386C409.72 186.542 411.998 188.208 413.902 190.384C415.806 192.492 417.268 195.076 418.288 198.136C419.376 201.196 419.92 204.596 419.92 208.336ZM411.25 208.336C411.25 202.964 410.094 198.748 407.782 195.688C405.47 192.56 402.342 190.996 398.398 190.996C394.522 190.996 391.428 192.56 389.116 195.688C386.872 198.748 385.75 202.964 385.75 208.336C385.75 213.64 386.872 217.856 389.116 220.984C391.428 224.044 394.522 225.574 398.398 225.574C402.342 225.574 405.47 224.044 407.782 220.984C410.094 217.856 411.25 213.64 411.25 208.336ZM434.914 232V187.222C441.85 184.842 448.854 183.652 455.926 183.652C458.102 183.652 460.176 183.754 462.148 183.958C464.12 184.094 466.296 184.434 468.676 184.978L467.146 192.424C464.97 191.812 463.032 191.438 461.332 191.302C459.7 191.098 457.898 190.996 455.926 190.996C451.778 190.996 447.562 191.574 443.278 192.73V232H434.914ZM496.318 177.328C494.55 177.328 493.02 176.716 491.728 175.492C490.436 174.268 489.79 172.602 489.79 170.494C489.79 168.386 490.436 166.72 491.728 165.496C493.02 164.272 494.55 163.66 496.318 163.66C498.154 163.66 499.684 164.272 500.908 165.496C502.2 166.72 502.846 168.386 502.846 170.494C502.846 172.602 502.2 174.268 500.908 175.492C499.684 176.716 498.154 177.328 496.318 177.328ZM494.176 191.71H480.508V184.672H502.54V213.742C502.54 218.434 503.186 221.596 504.478 223.228C505.77 224.792 507.708 225.574 510.292 225.574C512.264 225.574 514.066 225.336 515.698 224.86C517.398 224.384 518.724 223.874 519.676 223.33L520.9 230.47C520.492 230.674 519.914 230.946 519.166 231.286C518.418 231.558 517.534 231.83 516.514 232.102C515.562 232.374 514.474 232.612 513.25 232.816C512.094 233.02 510.87 233.122 509.578 233.122C506.586 233.122 504.104 232.714 502.132 231.898C500.16 231.082 498.562 229.858 497.338 228.226C496.182 226.594 495.366 224.588 494.89 222.208C494.414 219.76 494.176 216.938 494.176 213.742V191.71ZM552.01 225.982C554.118 225.982 555.988 225.914 557.62 225.778C559.32 225.642 560.714 225.472 561.802 225.268V211.192C560.714 210.852 559.388 210.58 557.824 210.376C556.328 210.172 554.73 210.07 553.03 210.07C551.466 210.07 549.936 210.206 548.44 210.478C546.944 210.682 545.618 211.09 544.462 211.702C543.306 212.314 542.354 213.13 541.606 214.15C540.858 215.102 540.484 216.326 540.484 217.822C540.484 220.882 541.504 223.024 543.544 224.248C545.652 225.404 548.474 225.982 552.01 225.982ZM551.194 183.55C554.73 183.55 557.688 183.992 560.068 184.876C562.516 185.76 564.488 186.984 565.984 188.548C567.48 190.112 568.534 192.016 569.146 194.26C569.758 196.504 570.064 198.952 570.064 201.604V231.184C568.092 231.524 565.474 231.932 562.21 232.408C559.014 232.884 555.716 233.122 552.316 233.122C549.732 233.122 547.216 232.884 544.768 232.408C542.32 232 540.144 231.252 538.24 230.164C536.336 229.008 534.806 227.444 533.65 225.472C532.494 223.5 531.916 220.984 531.916 217.924C531.916 215.204 532.494 212.926 533.65 211.09C534.874 209.186 536.404 207.656 538.24 206.5C540.144 205.344 542.286 204.528 544.666 204.052C547.114 203.508 549.562 203.236 552.01 203.236C555.342 203.236 558.606 203.61 561.802 204.358V202.012C561.802 200.584 561.632 199.224 561.292 197.932C561.02 196.572 560.442 195.348 559.558 194.26C558.742 193.172 557.586 192.322 556.09 191.71C554.662 191.03 552.792 190.69 550.48 190.69C547.556 190.69 545.006 190.894 542.83 191.302C540.654 191.71 538.988 192.118 537.832 192.526L536.812 185.59C537.968 185.046 539.872 184.57 542.524 184.162C545.244 183.754 548.134 183.55 551.194 183.55Z" fill="black"/>
</svg>
