<svg width="650" height="300" viewBox="0 0 650 300" fill="none" xmlns="http://www.w3.org/2000/svg">
<rect width="650" height="300" fill="#803D99"/>
<path d="M386.752 135.424V144H357.12V99.648H367.104V135.424H386.752ZM402.079 144H392.543V110.336H402.079V144ZM402.975 100.608C402.975 102.357 402.399 103.744 401.247 104.768C400.137 105.749 398.815 106.24 397.279 106.24C395.743 106.24 394.399 105.749 393.247 104.768C392.137 103.744 391.583 102.357 391.583 100.608C391.583 98.8587 392.137 97.4933 393.247 96.512C394.399 95.488 395.743 94.976 397.279 94.976C398.815 94.976 400.137 95.488 401.247 96.512C402.399 97.4933 402.975 98.8587 402.975 100.608ZM411.043 111.488C412.664 111.019 414.755 110.592 417.315 110.208C419.875 109.781 422.563 109.568 425.378 109.568C428.237 109.568 430.605 109.952 432.483 110.72C434.403 111.445 435.917 112.491 437.027 113.856C438.136 115.221 438.925 116.843 439.395 118.72C439.864 120.597 440.099 122.688 440.099 124.992V144H430.563V126.144C430.563 123.072 430.157 120.896 429.347 119.616C428.536 118.336 427.021 117.696 424.803 117.696C424.12 117.696 423.395 117.739 422.627 117.824C421.859 117.867 421.176 117.931 420.579 118.016V144H411.043V111.488ZM477.466 142.848C475.845 143.317 473.754 143.744 471.194 144.128C468.634 144.555 465.946 144.768 463.13 144.768C460.271 144.768 457.882 144.384 455.962 143.616C454.085 142.848 452.591 141.781 451.482 140.416C450.373 139.008 449.583 137.344 449.114 135.424C448.645 133.504 448.41 131.392 448.41 129.088V110.336H457.946V127.936C457.946 131.008 458.351 133.227 459.162 134.592C459.973 135.957 461.487 136.64 463.706 136.64C464.389 136.64 465.114 136.619 465.882 136.576C466.65 136.491 467.333 136.405 467.93 136.32V110.336H477.466V142.848ZM499.794 120.576L506.45 110.336H516.306L504.786 126.528C507.346 129.728 509.671 132.843 511.762 135.872C513.852 138.901 515.516 141.611 516.754 144H506.514C506.172 143.36 505.746 142.571 505.234 141.632C504.722 140.651 504.146 139.648 503.506 138.624C502.866 137.557 502.183 136.512 501.458 135.488C500.775 134.421 500.092 133.461 499.41 132.608C498.77 133.419 498.108 134.315 497.426 135.296C496.786 136.277 496.167 137.28 495.57 138.304C494.972 139.285 494.375 140.267 493.778 141.248C493.223 142.229 492.732 143.147 492.306 144H482.578C483.09 142.933 483.794 141.675 484.69 140.224C485.586 138.773 486.546 137.28 487.57 135.744C488.636 134.165 489.746 132.608 490.898 131.072C492.05 129.493 493.18 128.021 494.29 126.656C492.37 123.968 490.45 121.259 488.53 118.528C486.61 115.755 484.711 113.024 482.834 110.336H493.138L499.794 120.576ZM370.304 218C368.555 214.288 366.827 210.427 365.12 206.416C363.413 202.405 361.792 198.437 360.256 194.512C358.72 190.587 357.291 186.832 355.968 183.248C354.688 179.664 353.579 176.464 352.64 173.648H363.648C364.501 176.208 365.419 178.981 366.4 181.968C367.424 184.912 368.448 187.856 369.472 190.8C370.539 193.744 371.563 196.56 372.544 199.248C373.525 201.936 374.443 204.261 375.296 206.224C376.107 204.261 377.003 201.936 377.984 199.248C379.008 196.56 380.032 193.744 381.056 190.8C382.123 187.856 383.147 184.912 384.128 181.968C385.152 178.981 386.091 176.208 386.944 173.648H397.568C396.587 176.464 395.456 179.664 394.176 183.248C392.896 186.832 391.488 190.587 389.952 194.512C388.416 198.437 386.795 202.405 385.088 206.416C383.381 210.427 381.653 214.288 379.904 218H370.304ZM412.204 218H402.668V184.336H412.204V218ZM413.1 174.608C413.1 176.357 412.524 177.744 411.372 178.768C410.262 179.749 408.94 180.24 407.404 180.24C405.868 180.24 404.524 179.749 403.372 178.768C402.262 177.744 401.708 176.357 401.708 174.608C401.708 172.859 402.262 171.493 403.372 170.512C404.524 169.488 405.868 168.976 407.404 168.976C408.94 168.976 410.262 169.488 411.372 170.512C412.524 171.493 413.1 172.859 413.1 174.608ZM419.568 201.168C419.568 198.736 419.952 196.453 420.72 194.32C421.53 192.144 422.682 190.267 424.176 188.688C425.669 187.067 427.482 185.787 429.616 184.848C431.749 183.909 434.181 183.44 436.912 183.44C438.704 183.44 440.346 183.611 441.84 183.952C443.333 184.251 444.784 184.699 446.192 185.296L444.208 192.912C443.312 192.571 442.33 192.272 441.264 192.016C440.197 191.76 439.002 191.632 437.68 191.632C434.864 191.632 432.752 192.507 431.344 194.256C429.978 196.005 429.296 198.309 429.296 201.168C429.296 204.197 429.936 206.544 431.216 208.208C432.538 209.872 434.821 210.704 438.064 210.704C439.216 210.704 440.453 210.597 441.776 210.384C443.098 210.171 444.314 209.829 445.424 209.36L446.768 217.168C445.658 217.637 444.272 218.043 442.608 218.384C440.944 218.725 439.109 218.896 437.104 218.896C434.032 218.896 431.386 218.448 429.168 217.552C426.949 216.613 425.114 215.355 423.664 213.776C422.256 212.197 421.21 210.341 420.528 208.208C419.888 206.032 419.568 203.685 419.568 201.168ZM452.848 175.952L462.384 174.416V184.336H473.84V192.272H462.384V204.112C462.384 206.117 462.725 207.717 463.408 208.912C464.133 210.107 465.562 210.704 467.696 210.704C468.72 210.704 469.765 210.619 470.832 210.448C471.941 210.235 472.944 209.957 473.84 209.616L475.184 217.04C474.032 217.509 472.752 217.915 471.344 218.256C469.936 218.597 468.208 218.768 466.16 218.768C463.557 218.768 461.402 218.427 459.696 217.744C457.989 217.019 456.624 216.037 455.6 214.8C454.576 213.52 453.85 211.984 453.424 210.192C453.04 208.4 452.848 206.416 452.848 204.24V175.952ZM511.843 201.104C511.843 203.749 511.459 206.181 510.691 208.4C509.923 210.576 508.814 212.453 507.363 214.032C505.912 215.568 504.163 216.763 502.115 217.616C500.11 218.469 497.848 218.896 495.331 218.896C492.856 218.896 490.595 218.469 488.547 217.616C486.542 216.763 484.814 215.568 483.363 214.032C481.912 212.453 480.782 210.576 479.971 208.4C479.16 206.181 478.755 203.749 478.755 201.104C478.755 198.459 479.16 196.048 479.971 193.872C480.824 191.696 481.976 189.84 483.427 188.304C484.92 186.768 486.67 185.573 488.675 184.72C490.723 183.867 492.942 183.44 495.331 183.44C497.763 183.44 499.982 183.867 501.987 184.72C504.035 185.573 505.784 186.768 507.235 188.304C508.686 189.84 509.816 191.696 510.627 193.872C511.438 196.048 511.843 198.459 511.843 201.104ZM502.115 201.104C502.115 198.16 501.518 195.856 500.323 194.192C499.171 192.485 497.507 191.632 495.331 191.632C493.155 191.632 491.47 192.485 490.275 194.192C489.08 195.856 488.483 198.16 488.483 201.104C488.483 204.048 489.08 206.395 490.275 208.144C491.47 209.851 493.155 210.704 495.331 210.704C497.507 210.704 499.171 209.851 500.323 208.144C501.518 206.395 502.115 204.048 502.115 201.104ZM539.518 192.784C538.665 192.571 537.662 192.357 536.51 192.144C535.358 191.888 534.121 191.76 532.798 191.76C532.201 191.76 531.475 191.824 530.622 191.952C529.811 192.037 529.193 192.144 528.766 192.272V218H519.23V186.128C520.937 185.531 522.942 184.976 525.246 184.464C527.593 183.909 530.195 183.632 533.054 183.632C533.566 183.632 534.185 183.675 534.91 183.76C535.635 183.803 536.361 183.888 537.086 184.016C537.811 184.101 538.537 184.229 539.262 184.4C539.987 184.528 540.606 184.699 541.118 184.912L539.518 192.784ZM555.766 218H546.23V184.336H555.766V218ZM556.662 174.608C556.662 176.357 556.086 177.744 554.934 178.768C553.825 179.749 552.502 180.24 550.966 180.24C549.43 180.24 548.086 179.749 546.934 178.768C545.825 177.744 545.27 176.357 545.27 174.608C545.27 172.859 545.825 171.493 546.934 170.512C548.086 169.488 549.43 168.976 550.966 168.976C552.502 168.976 553.825 169.488 554.934 170.512C556.086 171.493 556.662 172.859 556.662 174.608ZM577.594 211.344C578.533 211.344 579.429 211.323 580.282 211.28C581.135 211.237 581.818 211.173 582.33 211.088V203.856C581.946 203.771 581.37 203.685 580.602 203.6C579.834 203.515 579.13 203.472 578.49 203.472C577.594 203.472 576.741 203.536 575.93 203.664C575.162 203.749 574.479 203.941 573.882 204.24C573.285 204.539 572.815 204.944 572.474 205.456C572.133 205.968 571.962 206.608 571.962 207.376C571.962 208.869 572.453 209.915 573.434 210.512C574.458 211.067 575.845 211.344 577.594 211.344ZM576.826 183.44C579.642 183.44 581.989 183.76 583.866 184.4C585.743 185.04 587.237 185.957 588.346 187.152C589.498 188.347 590.309 189.797 590.778 191.504C591.247 193.211 591.482 195.109 591.482 197.2V217.04C590.117 217.339 588.218 217.68 585.786 218.064C583.354 218.491 580.41 218.704 576.954 218.704C574.778 218.704 572.794 218.512 571.002 218.128C569.253 217.744 567.738 217.125 566.458 216.272C565.178 215.376 564.197 214.224 563.514 212.816C562.831 211.408 562.49 209.68 562.49 207.632C562.49 205.669 562.874 204.005 563.642 202.64C564.453 201.275 565.519 200.187 566.842 199.376C568.165 198.565 569.679 197.989 571.386 197.648C573.093 197.264 574.863 197.072 576.698 197.072C577.935 197.072 579.023 197.136 579.962 197.264C580.943 197.349 581.733 197.477 582.33 197.648V196.752C582.33 195.131 581.839 193.829 580.858 192.848C579.877 191.867 578.17 191.376 575.738 191.376C574.117 191.376 572.517 191.504 570.938 191.76C569.359 191.973 567.994 192.293 566.842 192.72L565.626 185.04C566.181 184.869 566.863 184.699 567.674 184.528C568.527 184.315 569.445 184.144 570.426 184.016C571.407 183.845 572.431 183.717 573.498 183.632C574.607 183.504 575.717 183.44 576.826 183.44Z" fill="white"/>
<line x1="311" y1="224.002" x2="311" y2="88.9981" stroke="white" stroke-width="9"/>
<path d="M108.661 197.453C114.079 197.453 116.788 199.473 116.788 203.513V204.867C116.788 207.053 115.814 208.455 113.865 209.073C111.917 209.691 108.376 210 103.243 210H88.5576L86.918 209.929C70.9017 209.929 61.8005 209.192 59.6143 207.719C57.4281 206.245 56.335 200.946 56.335 191.821V180.558L56.4062 178.918L56.5488 170.791V157.745L56.6201 154.537V146.624L56.5488 141.919C56.5488 140.351 56.5488 138.782 56.5488 137.214L56.4775 132.509V127.875L56.335 118.536C56.335 114.639 56.6676 112.191 57.333 111.193C58.0459 110.148 59.6618 109.625 62.1807 109.625C64.6995 109.625 66.6243 110.029 67.9551 110.837C69.2858 111.597 70.1888 113.142 70.6641 115.471C71.1868 117.799 71.4482 130.489 71.4482 153.539C71.4482 176.589 72.2799 189.825 73.9434 193.247C74.8464 195.101 76.8424 196.312 79.9316 196.883C83.0684 197.453 88.1061 197.738 95.0449 197.738L99.6787 197.667C100.724 197.619 101.746 197.596 102.744 197.596L105.738 197.453H108.661Z" fill="white"/>
<path d="M265.083 210.824H207.125C203.798 210.824 201.755 210.515 200.994 209.897C200.281 209.28 199.925 207.711 199.925 205.192V204.337C199.925 201.295 200.4 199.465 201.351 198.848C202.301 198.277 204.654 197.992 208.408 197.992H229.438L230.223 198.063L263.158 197.992C267.15 197.992 269.598 198.23 270.501 198.705C271.451 199.18 271.927 200.606 271.927 202.982V205.406C271.927 207.878 271.451 209.398 270.501 209.969C269.598 210.539 267.792 210.824 265.083 210.824Z" fill="white"/>
<path d="M135.402 209.938C133.074 209.938 131.909 207.966 131.909 204.021V202.81C131.909 199.863 134.143 196.631 138.61 193.114C139.513 192.401 145.383 188.766 156.219 182.207C167.055 175.648 172.473 172.274 172.473 172.084C172.473 171.894 166.983 168.377 156.005 161.533C145.026 154.689 139.062 150.887 138.111 150.127C134.119 146.895 132.123 143.331 132.123 139.434C132.123 135.536 133.454 133.588 136.115 133.588C136.781 133.588 139.109 134.705 143.102 136.938C160.876 146.919 175.324 155.996 186.445 164.171C189.107 166.119 190.438 168.757 190.438 172.084C190.438 175.411 188.917 178.072 185.875 180.068C170.096 190.762 154.84 200.124 140.107 208.156C137.921 209.344 136.353 209.938 135.402 209.938Z" fill="white"/>
</svg>
