<svg width="300" height="201" viewBox="0 0 300 201" fill="none" xmlns="http://www.w3.org/2000/svg">
<rect y="21" width="300" height="180" rx="35" fill="black"/>
<path d="M97.6611 148.453C103.079 148.453 105.788 150.473 105.788 154.513V155.867C105.788 158.053 104.814 159.455 102.865 160.073C100.917 160.691 97.376 161 92.2432 161H77.5576L75.918 160.929C59.9017 160.929 50.8005 160.192 48.6143 158.719C46.4281 157.245 45.335 151.946 45.335 142.821V131.558L45.4062 129.918L45.5488 121.791V108.745L45.6201 105.537V97.624L45.5488 92.9189C45.5488 91.3506 45.5488 89.7822 45.5488 88.2139L45.4775 83.5088V78.875L45.335 69.5361C45.335 65.639 45.6676 63.1914 46.333 62.1934C47.0459 61.1478 48.6618 60.625 51.1807 60.625C53.6995 60.625 55.6243 61.029 56.9551 61.8369C58.2858 62.5973 59.1888 64.1419 59.6641 66.4707C60.1868 68.7995 60.4482 81.4889 60.4482 104.539C60.4482 127.589 61.2799 140.825 62.9434 144.247C63.8464 146.101 65.8424 147.312 68.9316 147.883C72.0684 148.453 77.1061 148.738 84.0449 148.738L88.6787 148.667C89.7243 148.619 90.7461 148.596 91.7441 148.596L94.7383 148.453H97.6611Z" fill="#803D99"/>
<path d="M254.083 161.824H196.125C192.798 161.824 190.755 161.515 189.994 160.897C189.281 160.28 188.925 158.711 188.925 156.192V155.337C188.925 152.295 189.4 150.465 190.351 149.848C191.301 149.277 193.654 148.992 197.408 148.992H218.438L219.223 149.063L252.158 148.992C256.15 148.992 258.598 149.23 259.501 149.705C260.451 150.18 260.927 151.606 260.927 153.982V156.406C260.927 158.878 260.451 160.398 259.501 160.969C258.598 161.539 256.792 161.824 254.083 161.824Z" fill="#803D99"/>
<path d="M126.402 158.938C124.074 158.938 122.909 156.966 122.909 153.021V151.81C122.909 148.863 125.143 145.631 129.61 142.114C130.513 141.401 136.383 137.766 147.219 131.207C158.055 124.648 163.473 121.274 163.473 121.084C163.473 120.894 157.983 117.377 147.005 110.533C136.026 103.689 130.062 99.8874 129.111 99.127C125.119 95.8952 123.123 92.3307 123.123 88.4336C123.123 84.5365 124.454 82.5879 127.115 82.5879C127.781 82.5879 130.109 83.7048 134.102 85.9385C151.876 95.9189 166.324 104.996 177.445 113.171C180.107 115.119 181.438 117.757 181.438 121.084C181.438 124.411 179.917 127.072 176.875 129.068C161.096 139.762 145.84 149.124 131.107 157.156C128.921 158.344 127.353 158.938 126.402 158.938Z" fill="#803D99"/>
</svg>
