<svg width="300" height="300" viewBox="0 0 300 300" fill="none" xmlns="http://www.w3.org/2000/svg">
<rect width="300" height="300" fill="white"/>
<path d="M97.6611 187.453C103.079 187.453 105.788 189.473 105.788 193.513V194.867C105.788 197.053 104.814 198.455 102.865 199.073C100.917 199.691 97.376 200 92.2432 200H77.5576L75.918 199.929C59.9017 199.929 50.8005 199.192 48.6143 197.719C46.4281 196.245 45.335 190.946 45.335 181.821V170.558L45.4062 168.918L45.5488 160.791V147.745L45.6201 144.537V136.624L45.5488 131.919C45.5488 130.351 45.5488 128.782 45.5488 127.214L45.4775 122.509V117.875L45.335 108.536C45.335 104.639 45.6676 102.191 46.333 101.193C47.0459 100.148 48.6618 99.625 51.1807 99.625C53.6995 99.625 55.6243 100.029 56.9551 100.837C58.2858 101.597 59.1888 103.142 59.6641 105.471C60.1868 107.799 60.4482 120.489 60.4482 143.539C60.4482 166.589 61.2799 179.825 62.9434 183.247C63.8464 185.101 65.8424 186.312 68.9316 186.883C72.0684 187.453 77.1061 187.738 84.0449 187.738L88.6787 187.667C89.7243 187.619 90.7461 187.596 91.7441 187.596L94.7383 187.453H97.6611Z" fill="#803D99"/>
<path d="M254.083 200.824H196.125C192.798 200.824 190.755 200.515 189.994 199.897C189.281 199.28 188.925 197.711 188.925 195.192V194.337C188.925 191.295 189.4 189.465 190.351 188.848C191.301 188.277 193.654 187.992 197.408 187.992H218.438L219.223 188.063L252.158 187.992C256.15 187.992 258.598 188.23 259.501 188.705C260.451 189.18 260.927 190.606 260.927 192.982V195.406C260.927 197.878 260.451 199.398 259.501 199.969C258.598 200.539 256.792 200.824 254.083 200.824Z" fill="#803D99"/>
<path d="M126.402 197.938C124.074 197.938 122.909 195.966 122.909 192.021V190.81C122.909 187.863 125.143 184.631 129.61 181.114C130.513 180.401 136.383 176.766 147.219 170.207C158.055 163.648 163.473 160.274 163.473 160.084C163.473 159.894 157.983 156.377 147.005 149.533C136.026 142.689 130.062 138.887 129.111 138.127C125.119 134.895 123.123 131.331 123.123 127.434C123.123 123.536 124.454 121.588 127.115 121.588C127.781 121.588 130.109 122.705 134.102 124.938C151.876 134.919 166.324 143.996 177.445 152.171C180.107 154.119 181.438 156.757 181.438 160.084C181.438 163.411 179.917 166.072 176.875 168.068C161.096 178.762 145.84 188.124 131.107 196.156C128.921 197.344 127.353 197.938 126.402 197.938Z" fill="#803D99"/>
</svg>
