<svg width="300" height="300" viewBox="0 0 300 300" fill="none" xmlns="http://www.w3.org/2000/svg">
<circle cx="150" cy="150" r="150" fill="white"/>
<path d="M99.6611 186.453C105.079 186.453 107.788 188.473 107.788 192.513V193.867C107.788 196.053 106.814 197.455 104.865 198.073C102.917 198.691 99.376 199 94.2432 199H79.5576L77.918 198.929C61.9017 198.929 52.8005 198.192 50.6143 196.719C48.4281 195.245 47.335 189.946 47.335 180.821V169.558L47.4062 167.918L47.5488 159.791V146.745L47.6201 143.537V135.624L47.5488 130.919C47.5488 129.351 47.5488 127.782 47.5488 126.214L47.4775 121.509V116.875L47.335 107.536C47.335 103.639 47.6676 101.191 48.333 100.193C49.0459 99.1478 50.6618 98.625 53.1807 98.625C55.6995 98.625 57.6243 99.029 58.9551 99.8369C60.2858 100.597 61.1888 102.142 61.6641 104.471C62.1868 106.799 62.4482 119.489 62.4482 142.539C62.4482 165.589 63.2799 178.825 64.9434 182.247C65.8464 184.101 67.8424 185.312 70.9316 185.883C74.0684 186.453 79.1061 186.738 86.0449 186.738L90.6787 186.667C91.7243 186.619 92.7461 186.596 93.7441 186.596L96.7383 186.453H99.6611Z" fill="#803D99"/>
<path d="M256.083 199.824H198.125C194.798 199.824 192.755 199.515 191.994 198.897C191.281 198.28 190.925 196.711 190.925 194.192V193.337C190.925 190.295 191.4 188.465 192.351 187.848C193.301 187.277 195.654 186.992 199.408 186.992H220.438L221.223 187.063L254.158 186.992C258.15 186.992 260.598 187.23 261.501 187.705C262.451 188.18 262.927 189.606 262.927 191.982V194.406C262.927 196.878 262.451 198.398 261.501 198.969C260.598 199.539 258.792 199.824 256.083 199.824Z" fill="#803D99"/>
<path d="M126.402 198.938C124.074 198.938 122.909 196.966 122.909 193.021V191.81C122.909 188.863 125.143 185.631 129.61 182.114C130.513 181.401 136.383 177.766 147.219 171.207C158.055 164.648 163.473 161.274 163.473 161.084C163.473 160.894 157.983 157.377 147.005 150.533C136.026 143.689 130.062 139.887 129.111 139.127C125.119 135.895 123.123 132.331 123.123 128.434C123.123 124.536 124.454 122.588 127.115 122.588C127.781 122.588 130.109 123.705 134.102 125.938C151.876 135.919 166.324 144.996 177.445 153.171C180.107 155.119 181.438 157.757 181.438 161.084C181.438 164.411 179.917 167.072 176.875 169.068C161.096 179.762 145.84 189.124 131.107 197.156C128.921 198.344 127.353 198.938 126.402 198.938Z" fill="#803D99"/>
</svg>
