<svg width="300" height="300" viewBox="0 0 300 300" fill="none" xmlns="http://www.w3.org/2000/svg">
<rect width="300" height="300" fill="#803D99"/>
<path d="M99.6611 185.453C105.079 185.453 107.788 187.473 107.788 191.513V192.867C107.788 195.053 106.814 196.455 104.865 197.073C102.917 197.691 99.376 198 94.2432 198H79.5576L77.918 197.929C61.9017 197.929 52.8005 197.192 50.6143 195.719C48.4281 194.245 47.335 188.946 47.335 179.821V168.558L47.4062 166.918L47.5488 158.791V145.745L47.6201 142.537V134.624L47.5488 129.919C47.5488 128.351 47.5488 126.782 47.5488 125.214L47.4775 120.509V115.875L47.335 106.536C47.335 102.639 47.6676 100.191 48.333 99.1934C49.0459 98.1478 50.6618 97.625 53.1807 97.625C55.6995 97.625 57.6243 98.029 58.9551 98.8369C60.2858 99.5973 61.1888 101.142 61.6641 103.471C62.1868 105.799 62.4482 118.489 62.4482 141.539C62.4482 164.589 63.2799 177.825 64.9434 181.247C65.8464 183.101 67.8424 184.312 70.9316 184.883C74.0684 185.453 79.1061 185.738 86.0449 185.738L90.6787 185.667C91.7243 185.619 92.7461 185.596 93.7441 185.596L96.7383 185.453H99.6611Z" fill="white"/>
<path d="M256.083 198.824H198.125C194.798 198.824 192.755 198.515 191.994 197.897C191.281 197.28 190.925 195.711 190.925 193.192V192.337C190.925 189.295 191.4 187.465 192.351 186.848C193.301 186.277 195.654 185.992 199.408 185.992H220.438L221.223 186.063L254.158 185.992C258.15 185.992 260.598 186.23 261.501 186.705C262.451 187.18 262.927 188.606 262.927 190.982V193.406C262.927 195.878 262.451 197.398 261.501 197.969C260.598 198.539 258.792 198.824 256.083 198.824Z" fill="white"/>
<path d="M126.402 197.938C124.074 197.938 122.909 195.966 122.909 192.021V190.81C122.909 187.863 125.143 184.631 129.61 181.114C130.513 180.401 136.383 176.766 147.219 170.207C158.055 163.648 163.473 160.274 163.473 160.084C163.473 159.894 157.983 156.377 147.005 149.533C136.026 142.689 130.062 138.887 129.111 138.127C125.119 134.895 123.123 131.331 123.123 127.434C123.123 123.536 124.454 121.588 127.115 121.588C127.781 121.588 130.109 122.705 134.102 124.938C151.876 134.919 166.324 143.996 177.445 152.171C180.107 154.119 181.438 156.757 181.438 160.084C181.438 163.411 179.917 166.072 176.875 168.068C161.096 178.762 145.84 188.124 131.107 196.156C128.921 197.344 127.353 197.938 126.402 197.938Z" fill="white"/>
</svg>
