<svg width="650" height="300" viewBox="0 0 650 300" fill="none" xmlns="http://www.w3.org/2000/svg">
<rect width="650" height="300" fill="#803D99"/>
<path d="M385.752 135.424V144H356.12V99.648H366.104V135.424H385.752ZM401.079 144H391.543V110.336H401.079V144ZM401.975 100.608C401.975 102.357 401.399 103.744 400.247 104.768C399.137 105.749 397.815 106.24 396.279 106.24C394.743 106.24 393.399 105.749 392.247 104.768C391.137 103.744 390.583 102.357 390.583 100.608C390.583 98.8587 391.137 97.4933 392.247 96.512C393.399 95.488 394.743 94.976 396.279 94.976C397.815 94.976 399.137 95.488 400.247 96.512C401.399 97.4933 401.975 98.8587 401.975 100.608ZM410.043 111.488C411.664 111.019 413.755 110.592 416.315 110.208C418.875 109.781 421.563 109.568 424.378 109.568C427.237 109.568 429.605 109.952 431.483 110.72C433.403 111.445 434.917 112.491 436.027 113.856C437.136 115.221 437.925 116.843 438.395 118.72C438.864 120.597 439.099 122.688 439.099 124.992V144H429.563V126.144C429.563 123.072 429.157 120.896 428.347 119.616C427.536 118.336 426.021 117.696 423.803 117.696C423.12 117.696 422.395 117.739 421.627 117.824C420.859 117.867 420.176 117.931 419.579 118.016V144H410.043V111.488ZM476.466 142.848C474.845 143.317 472.754 143.744 470.194 144.128C467.634 144.555 464.946 144.768 462.13 144.768C459.271 144.768 456.882 144.384 454.962 143.616C453.085 142.848 451.591 141.781 450.482 140.416C449.373 139.008 448.583 137.344 448.114 135.424C447.645 133.504 447.41 131.392 447.41 129.088V110.336H456.946V127.936C456.946 131.008 457.351 133.227 458.162 134.592C458.973 135.957 460.487 136.64 462.706 136.64C463.389 136.64 464.114 136.619 464.882 136.576C465.65 136.491 466.333 136.405 466.93 136.32V110.336H476.466V142.848ZM498.794 120.576L505.45 110.336H515.306L503.786 126.528C506.346 129.728 508.671 132.843 510.762 135.872C512.852 138.901 514.516 141.611 515.754 144H505.514C505.172 143.36 504.746 142.571 504.234 141.632C503.722 140.651 503.146 139.648 502.506 138.624C501.866 137.557 501.183 136.512 500.458 135.488C499.775 134.421 499.092 133.461 498.41 132.608C497.77 133.419 497.108 134.315 496.426 135.296C495.786 136.277 495.167 137.28 494.57 138.304C493.972 139.285 493.375 140.267 492.778 141.248C492.223 142.229 491.732 143.147 491.306 144H481.578C482.09 142.933 482.794 141.675 483.69 140.224C484.586 138.773 485.546 137.28 486.57 135.744C487.636 134.165 488.746 132.608 489.898 131.072C491.05 129.493 492.18 128.021 493.29 126.656C491.37 123.968 489.45 121.259 487.53 118.528C485.61 115.755 483.711 113.024 481.834 110.336H492.138L498.794 120.576ZM369.304 218C367.555 214.288 365.827 210.427 364.12 206.416C362.413 202.405 360.792 198.437 359.256 194.512C357.72 190.587 356.291 186.832 354.968 183.248C353.688 179.664 352.579 176.464 351.64 173.648H362.648C363.501 176.208 364.419 178.981 365.4 181.968C366.424 184.912 367.448 187.856 368.472 190.8C369.539 193.744 370.563 196.56 371.544 199.248C372.525 201.936 373.443 204.261 374.296 206.224C375.107 204.261 376.003 201.936 376.984 199.248C378.008 196.56 379.032 193.744 380.056 190.8C381.123 187.856 382.147 184.912 383.128 181.968C384.152 178.981 385.091 176.208 385.944 173.648H396.568C395.587 176.464 394.456 179.664 393.176 183.248C391.896 186.832 390.488 190.587 388.952 194.512C387.416 198.437 385.795 202.405 384.088 206.416C382.381 210.427 380.653 214.288 378.904 218H369.304ZM411.204 218H401.668V184.336H411.204V218ZM412.1 174.608C412.1 176.357 411.524 177.744 410.372 178.768C409.262 179.749 407.94 180.24 406.404 180.24C404.868 180.24 403.524 179.749 402.372 178.768C401.262 177.744 400.708 176.357 400.708 174.608C400.708 172.859 401.262 171.493 402.372 170.512C403.524 169.488 404.868 168.976 406.404 168.976C407.94 168.976 409.262 169.488 410.372 170.512C411.524 171.493 412.1 172.859 412.1 174.608ZM418.568 201.168C418.568 198.736 418.952 196.453 419.72 194.32C420.53 192.144 421.682 190.267 423.176 188.688C424.669 187.067 426.482 185.787 428.616 184.848C430.749 183.909 433.181 183.44 435.912 183.44C437.704 183.44 439.346 183.611 440.84 183.952C442.333 184.251 443.784 184.699 445.192 185.296L443.208 192.912C442.312 192.571 441.33 192.272 440.264 192.016C439.197 191.76 438.002 191.632 436.68 191.632C433.864 191.632 431.752 192.507 430.344 194.256C428.978 196.005 428.296 198.309 428.296 201.168C428.296 204.197 428.936 206.544 430.216 208.208C431.538 209.872 433.821 210.704 437.064 210.704C438.216 210.704 439.453 210.597 440.776 210.384C442.098 210.171 443.314 209.829 444.424 209.36L445.768 217.168C444.658 217.637 443.272 218.043 441.608 218.384C439.944 218.725 438.109 218.896 436.104 218.896C433.032 218.896 430.386 218.448 428.168 217.552C425.949 216.613 424.114 215.355 422.664 213.776C421.256 212.197 420.21 210.341 419.528 208.208C418.888 206.032 418.568 203.685 418.568 201.168ZM451.848 175.952L461.384 174.416V184.336H472.84V192.272H461.384V204.112C461.384 206.117 461.725 207.717 462.408 208.912C463.133 210.107 464.562 210.704 466.696 210.704C467.72 210.704 468.765 210.619 469.832 210.448C470.941 210.235 471.944 209.957 472.84 209.616L474.184 217.04C473.032 217.509 471.752 217.915 470.344 218.256C468.936 218.597 467.208 218.768 465.16 218.768C462.557 218.768 460.402 218.427 458.696 217.744C456.989 217.019 455.624 216.037 454.6 214.8C453.576 213.52 452.85 211.984 452.424 210.192C452.04 208.4 451.848 206.416 451.848 204.24V175.952ZM510.843 201.104C510.843 203.749 510.459 206.181 509.691 208.4C508.923 210.576 507.814 212.453 506.363 214.032C504.912 215.568 503.163 216.763 501.115 217.616C499.11 218.469 496.848 218.896 494.331 218.896C491.856 218.896 489.595 218.469 487.547 217.616C485.542 216.763 483.814 215.568 482.363 214.032C480.912 212.453 479.782 210.576 478.971 208.4C478.16 206.181 477.755 203.749 477.755 201.104C477.755 198.459 478.16 196.048 478.971 193.872C479.824 191.696 480.976 189.84 482.427 188.304C483.92 186.768 485.67 185.573 487.675 184.72C489.723 183.867 491.942 183.44 494.331 183.44C496.763 183.44 498.982 183.867 500.987 184.72C503.035 185.573 504.784 186.768 506.235 188.304C507.686 189.84 508.816 191.696 509.627 193.872C510.438 196.048 510.843 198.459 510.843 201.104ZM501.115 201.104C501.115 198.16 500.518 195.856 499.323 194.192C498.171 192.485 496.507 191.632 494.331 191.632C492.155 191.632 490.47 192.485 489.275 194.192C488.08 195.856 487.483 198.16 487.483 201.104C487.483 204.048 488.08 206.395 489.275 208.144C490.47 209.851 492.155 210.704 494.331 210.704C496.507 210.704 498.171 209.851 499.323 208.144C500.518 206.395 501.115 204.048 501.115 201.104ZM538.518 192.784C537.665 192.571 536.662 192.357 535.51 192.144C534.358 191.888 533.121 191.76 531.798 191.76C531.201 191.76 530.475 191.824 529.622 191.952C528.811 192.037 528.193 192.144 527.766 192.272V218H518.23V186.128C519.937 185.531 521.942 184.976 524.246 184.464C526.593 183.909 529.195 183.632 532.054 183.632C532.566 183.632 533.185 183.675 533.91 183.76C534.635 183.803 535.361 183.888 536.086 184.016C536.811 184.101 537.537 184.229 538.262 184.4C538.987 184.528 539.606 184.699 540.118 184.912L538.518 192.784ZM554.766 218H545.23V184.336H554.766V218ZM555.662 174.608C555.662 176.357 555.086 177.744 553.934 178.768C552.825 179.749 551.502 180.24 549.966 180.24C548.43 180.24 547.086 179.749 545.934 178.768C544.825 177.744 544.27 176.357 544.27 174.608C544.27 172.859 544.825 171.493 545.934 170.512C547.086 169.488 548.43 168.976 549.966 168.976C551.502 168.976 552.825 169.488 553.934 170.512C555.086 171.493 555.662 172.859 555.662 174.608ZM576.594 211.344C577.533 211.344 578.429 211.323 579.282 211.28C580.135 211.237 580.818 211.173 581.33 211.088V203.856C580.946 203.771 580.37 203.685 579.602 203.6C578.834 203.515 578.13 203.472 577.49 203.472C576.594 203.472 575.741 203.536 574.93 203.664C574.162 203.749 573.479 203.941 572.882 204.24C572.285 204.539 571.815 204.944 571.474 205.456C571.133 205.968 570.962 206.608 570.962 207.376C570.962 208.869 571.453 209.915 572.434 210.512C573.458 211.067 574.845 211.344 576.594 211.344ZM575.826 183.44C578.642 183.44 580.989 183.76 582.866 184.4C584.743 185.04 586.237 185.957 587.346 187.152C588.498 188.347 589.309 189.797 589.778 191.504C590.247 193.211 590.482 195.109 590.482 197.2V217.04C589.117 217.339 587.218 217.68 584.786 218.064C582.354 218.491 579.41 218.704 575.954 218.704C573.778 218.704 571.794 218.512 570.002 218.128C568.253 217.744 566.738 217.125 565.458 216.272C564.178 215.376 563.197 214.224 562.514 212.816C561.831 211.408 561.49 209.68 561.49 207.632C561.49 205.669 561.874 204.005 562.642 202.64C563.453 201.275 564.519 200.187 565.842 199.376C567.165 198.565 568.679 197.989 570.386 197.648C572.093 197.264 573.863 197.072 575.698 197.072C576.935 197.072 578.023 197.136 578.962 197.264C579.943 197.349 580.733 197.477 581.33 197.648V196.752C581.33 195.131 580.839 193.829 579.858 192.848C578.877 191.867 577.17 191.376 574.738 191.376C573.117 191.376 571.517 191.504 569.938 191.76C568.359 191.973 566.994 192.293 565.842 192.72L564.626 185.04C565.181 184.869 565.863 184.699 566.674 184.528C567.527 184.315 568.445 184.144 569.426 184.016C570.407 183.845 571.431 183.717 572.498 183.632C573.607 183.504 574.717 183.44 575.826 183.44Z" fill="white"/>
<rect x="42" y="67" width="280" height="180" rx="35" fill="white"/>
<path d="M126.736 193.453C132.154 193.453 134.863 195.473 134.863 199.513V200.867C134.863 203.053 133.889 204.455 131.941 205.073C129.992 205.691 126.451 206 121.318 206H106.633L104.993 205.929C88.977 205.929 79.8758 205.192 77.6896 203.719C75.5034 202.245 74.4103 196.946 74.4103 187.821V176.558L74.4816 174.918L74.6241 166.791V153.745L74.6954 150.537V142.624L74.6241 137.919C74.6241 136.351 74.6241 134.782 74.6241 133.214L74.5529 128.509V123.875L74.4103 114.536C74.4103 110.639 74.743 108.191 75.4083 107.193C76.1212 106.148 77.7371 105.625 80.256 105.625C82.7749 105.625 84.6997 106.029 86.0304 106.837C87.3611 107.597 88.2641 109.142 88.7394 111.471C89.2622 113.799 89.5236 126.489 89.5236 149.539C89.5236 172.589 90.3553 185.825 92.0187 189.247C92.9217 191.101 94.9178 192.312 98.007 192.883C101.144 193.453 106.181 193.738 113.12 193.738L117.754 193.667C118.8 193.619 119.821 193.596 120.819 193.596L123.814 193.453H126.736Z" fill="#803D99"/>
<path d="M283.707 206.824H225.749C222.422 206.824 220.378 206.515 219.618 205.897C218.905 205.28 218.548 203.711 218.548 201.192V200.337C218.548 197.295 219.024 195.465 219.974 194.848C220.925 194.277 223.277 193.992 227.032 193.992H248.062L248.846 194.063L281.782 193.992C285.774 193.992 288.222 194.23 289.125 194.705C290.075 195.18 290.55 196.606 290.55 198.982V201.406C290.55 203.878 290.075 205.398 289.125 205.969C288.222 206.539 286.416 206.824 283.707 206.824Z" fill="#803D99"/>
<path d="M153.754 205.938C151.425 205.938 150.26 203.966 150.26 200.021V198.81C150.26 195.863 152.494 192.631 156.962 189.114C157.865 188.401 163.734 184.766 174.57 178.207C185.406 171.648 190.824 168.274 190.824 168.084C190.824 167.894 185.335 164.377 174.356 157.533C163.378 150.689 157.413 146.887 156.463 146.127C152.47 142.895 150.474 139.331 150.474 135.434C150.474 131.536 151.805 129.588 154.467 129.588C155.132 129.588 157.461 130.705 161.453 132.938C179.228 142.919 193.676 151.996 204.797 160.171C207.458 162.119 208.789 164.757 208.789 168.084C208.789 171.411 207.268 174.072 204.226 176.068C188.448 186.762 173.192 196.124 158.459 204.156C156.273 205.344 154.704 205.938 153.754 205.938Z" fill="#803D99"/>
</svg>
